<?xml version="1.0" encoding="UTF-8"?>
<svg version="1.1" xmlns="http://www.w3.org/2000/svg" width="1102" height="334">
<path d="M0 0 C4.54314013 5.32644016 5.27627315 12.23130774 5 19 C7.64 19.33 10.28 19.66 13 20 C13.14695312 19.443125 13.29390625 18.88625 13.4453125 18.3125 C15.1232516 12.60364973 17.13844099 6.74527829 22 3 C25.95705518 2.47372498 29.44887716 3.22443858 33 5 C33.9767657 8.51141089 34.13519769 11.86962375 34.125 15.5 C34.12757813 16.4178125 34.13015625 17.335625 34.1328125 18.28125 C34.00244035 20.95004454 33.59378606 23.39865153 33 26 C36.4617188 27.35145553 36.4617188 27.35145553 40 27 C42.63764175 24.66753994 44.77491527 22.15661727 46.984375 19.41796875 C49 17 49 17 52 15 C56.15869464 15.29704962 58.50407222 15.66938148 62 18 C63.28699975 25.26776332 61.47842119 32.19909425 59 39 C59.99 39.99 60.98 40.98 62 42 C65.30308454 40.86456469 67.99751969 39.37448091 70.875 37.4375 C74.59574791 35.0901355 77.48945863 33.82979089 82 34 C85.20082983 36.50499726 86.7127358 38.1382074 88 42 C86.890625 44.7421875 86.890625 44.7421875 85.25 47.875 C84.71890625 48.90367188 84.1878125 49.93234375 83.640625 50.9921875 C82.15962695 53.70735058 80.61527962 56.36300738 79 59 C80.98 60.98 80.98 60.98 83 63 C83.7734375 62.71125 84.546875 62.4225 85.34375 62.125 C91.49456598 59.93262995 96.46959035 58.4976608 103 59 C107.10752688 65.16129032 107.10752688 65.16129032 106.6875 68.4375 C99.44327177 79.43799472 99.44327177 79.43799472 93 81 C93.99 84.465 93.99 84.465 95 88 C95.85722656 87.91621094 96.71445313 87.83242187 97.59765625 87.74609375 C110.65499734 86.58315131 110.65499734 86.58315131 115 88 C117.56424497 91.63957351 118.51873167 94.58732256 118 99 C116.4609375 100.6953125 116.4609375 100.6953125 114.375 102.125 C113.64667969 102.62515625 112.91835937 103.1253125 112.16796875 103.640625 C105.21551724 108 105.21551724 108 101 108 C101.33 110.64 101.66 113.28 102 116 C102.928125 115.9175 103.85625 115.835 104.8125 115.75 C110.19911797 115.71681755 115.11808501 117.89689129 120 120 C121 121 121 121 121.09765625 123.28515625 C121.08025391 124.65994141 121.08025391 124.65994141 121.0625 126.0625 C121.05347656 126.98160156 121.04445313 127.90070313 121.03515625 128.84765625 C121.01775391 129.91306641 121.01775391 129.91306641 121 131 C119.75264433 131.6509259 118.50198168 132.29551669 117.25 132.9375 C116.55390625 133.29714844 115.8578125 133.65679687 115.140625 134.02734375 C110.70514415 136.0427356 106.85984387 136.09345854 102 136 C101.67 138.64 101.34 141.28 101 144 C101.71800781 144.10441406 102.43601562 144.20882812 103.17578125 144.31640625 C106.29644087 145.07175263 108.46347753 146.25198534 111.1875 147.9375 C112.04730469 148.46214844 112.90710937 148.98679688 113.79296875 149.52734375 C116 151 116 151 118 153 C117.65862149 160.16894862 117.65862149 160.16894862 115.72802734 162.60498047 C113.57112233 164.34622874 112.5106748 164.35129095 109.76953125 164.29296875 C108.96708984 164.28330078 108.16464844 164.27363281 107.33789062 164.26367188 C106.50451172 164.23853516 105.67113281 164.21339844 104.8125 164.1875 C103.96751953 164.17396484 103.12253906 164.16042969 102.25195312 164.14648438 C100.16769616 164.11115799 98.08376723 164.05735139 96 164 C95.01 166.97 95.01 166.97 94 170 C94.61488281 170.53109375 95.22976563 171.0621875 95.86328125 171.609375 C96.67152344 172.31578125 97.47976563 173.0221875 98.3125 173.75 C99.11300781 174.44609375 99.91351562 175.1421875 100.73828125 175.859375 C102.8111666 177.82127685 104.50807167 179.57014931 106 182 C105.8365435 186.57678206 105.26198273 189.71636694 102 193 C95.2184208 193.78933135 88.25033139 191.4538338 82 189 C81.01 190.32 80.02 191.64 79 193 C80.31808061 195.77103458 81.81840412 198.23017192 83.5625 200.75 C86.2101282 204.99410849 87.16511261 207.96406533 87 213 C85 216.0625 85 216.0625 82 218 C76.08837742 218.3477425 72.06668897 215.44620916 67.33203125 212.27734375 C64.85845576 210.67973643 64.85845576 210.67973643 61 211 C60.34 211.33 59.68 211.66 59 212 C59.51762889 214.8469589 60.16128941 217.49335583 61.0625 220.25 C62.14503294 224.58013178 62.97876395 228.58279573 62 233 C59.3125 235.625 59.3125 235.625 56 237 C51.95274916 236.65788789 49.83830347 235.40095632 46.875 232.6875 C46.21242188 232.09324219 45.54984375 231.49898437 44.8671875 230.88671875 C43.03442298 229.03478305 41.50781412 227.1212416 40 225 C38.02 225.33 36.04 225.66 34 226 C34.02320313 227.01320312 34.04640625 228.02640625 34.0703125 229.0703125 C34.0890841 230.42186758 34.1072828 231.77343069 34.125 233.125 C34.14175781 233.79015625 34.15851563 234.4553125 34.17578125 235.140625 C34.21835605 239.48325465 33.78689277 243.02580705 32 247 C28.98825755 248.53933503 26.90683448 249.05029985 23.53515625 248.86328125 C20.01890232 247.66591281 19.14924851 245.89300417 17.25 242.75 C16.65703125 241.79609375 16.0640625 240.8421875 15.453125 239.859375 C14.08250681 237.16235211 13.41304798 234.97829332 13 232 C10.69 232 8.38 232 6 232 C5.89042969 232.85722656 5.78085937 233.71445313 5.66796875 234.59765625 C4.79758338 240.87433778 3.89466069 246.3422541 1 252 C-2.63 252 -6.26 252 -10 252 C-13.0517676 245.69301364 -14.90270053 239.9158743 -16 233 C-18.31 232.67 -20.62 232.34 -23 232 C-23.15662109 233.07701172 -23.15662109 233.07701172 -23.31640625 234.17578125 C-24.07175263 237.29644087 -25.25198534 239.46347753 -26.9375 242.1875 C-27.46214844 243.04730469 -27.98679687 243.90710938 -28.52734375 244.79296875 C-30 247 -30 247 -32 249 C-35.53217579 248.67889311 -38.63449506 248.12183498 -42 247 C-44.51662681 240.11238978 -44.19908329 233.25547991 -44 226 C-46.26706953 225.07519209 -46.26706953 225.07519209 -49 225 C-51.37660326 226.98224134 -51.37660326 226.98224134 -53.4375 229.75 C-56.59701075 233.70645353 -59.13519369 236.3275241 -64 238 C-66.3359375 237.19921875 -66.3359375 237.19921875 -68.375 235.6875 C-69.06335938 235.19636719 -69.75171875 234.70523438 -70.4609375 234.19921875 C-70.96882812 233.80347656 -71.47671875 233.40773437 -72 233 C-71.6143354 225.88515313 -70.60900601 219.64558134 -68 213 C-69.32 212.01 -70.64 211.02 -72 210 C-74.77103458 211.31808061 -77.23017192 212.81840412 -79.75 214.5625 C-83.99410849 217.2101282 -86.96406533 218.16511261 -92 218 C-95.0625 216 -95.0625 216 -97 213 C-97.3477425 207.08837742 -94.44620916 203.06668897 -91.27734375 198.33203125 C-89.67973643 195.85845576 -89.67973643 195.85845576 -90 192 C-91.4166747 190.2488427 -91.4166747 190.2488427 -93 189 C-94.051875 189.474375 -95.10375 189.94875 -96.1875 190.4375 C-101.38358038 192.64505319 -106.33045926 193.72157791 -112 193 C-114.5 190.375 -114.5 190.375 -116 187 C-115.77306045 181.87666783 -114.24945374 179.65028695 -110.5625 176.1875 C-109.75941406 175.41792969 -108.95632813 174.64835938 -108.12890625 173.85546875 C-106 172 -106 172 -104 171 C-104.33 169.02 -104.66 167.04 -105 165 C-105.92941406 165.02320313 -106.85882812 165.04640625 -107.81640625 165.0703125 C-121.46099291 165.26950355 -121.46099291 165.26950355 -126 163 C-127.61697538 159.96817116 -128.05428696 157.95152983 -127.859375 154.53515625 C-126.66672133 151.01682792 -124.89307224 150.14928964 -121.75 148.25 C-120.79609375 147.65703125 -119.8421875 147.0640625 -118.859375 146.453125 C-116.16235211 145.08250681 -113.97829332 144.41304798 -111 144 C-111.33 141.69 -111.66 139.38 -112 137 C-113.12019531 136.73445312 -114.24039063 136.46890625 -115.39453125 136.1953125 C-116.86726338 135.83885504 -118.33991551 135.48206692 -119.8125 135.125 C-120.55048828 134.95097656 -121.28847656 134.77695313 -122.04882812 134.59765625 C-125.49717037 133.75507489 -128.01928362 132.98714425 -131 131 C-131.29296875 128.3984375 -131.29296875 128.3984375 -131.1875 125.375 C-131.16042969 124.37210937 -131.13335938 123.36921875 -131.10546875 122.3359375 C-131.07066406 121.56507813 -131.03585937 120.79421875 -131 120 C-124.63876684 117.48590969 -118.83981276 115.51621228 -112 115 C-111.67 112.69 -111.34 110.38 -111 108 C-111.556875 107.85304688 -112.11375 107.70609375 -112.6875 107.5546875 C-118.77945028 105.76414806 -123.15870791 103.07618326 -128 99 C-127.25 91.375 -127.25 91.375 -125 88 C-121.74810988 86.73698911 -118.45437174 86.86636407 -115 86.875 C-113.96875 86.87242188 -112.9375 86.86984375 -111.875 86.8671875 C-109.40342991 86.98136329 -107.3557042 87.28649344 -105 88 C-103.79629883 84.85060367 -103.79629883 84.85060367 -104 81 C-106.32828711 78.25805782 -109.17573168 76.21029695 -112 74 C-114.15366314 72.04212442 -115.40249999 70.50275002 -117 68 C-116.34053488 64.26303098 -115.10253996 62.15380994 -113 59 C-105.31552996 58.13239854 -99.14296762 60.29268232 -92 63 C-90.42082334 61.13765716 -90.42082334 61.13765716 -89 59 C-89.92312244 54.84594904 -92.59370564 51.31599986 -94.87890625 47.76953125 C-97.06466255 44.31953959 -97.56505297 42.11681447 -97 38 C-93.90543478 34.11195652 -93.90543478 34.11195652 -91 33 C-84.19186933 33.48447372 -78.33226585 38.10479871 -73 42 C-71.68 41.01 -70.36 40.02 -69 39 C-69.20496094 38.39414062 -69.40992188 37.78828125 -69.62109375 37.1640625 C-71.5850412 31.05609195 -72.54292508 25.39904886 -73 19 C-70.36 17.35 -67.72 15.7 -65 14 C-60.15406072 16.32201257 -57.36638561 18.59136804 -54 22.8125 C-51.51838658 25.9952523 -51.51838658 25.9952523 -47.9375 27.359375 C-45.78362943 27.09122469 -45.78362943 27.09122469 -43 26 C-43.16242188 25.2884375 -43.32484375 24.576875 -43.4921875 23.84375 C-44.00060509 20.99661151 -44.13311504 18.38895309 -44.125 15.5 C-44.12757813 14.5821875 -44.13015625 13.664375 -44.1328125 12.71875 C-44.00088223 10.01805973 -43.73173625 7.60425385 -43 5 C-39.44360612 2.86616367 -36.05354224 2.17274648 -32 3 C-26.96526693 7.60702516 -24.70476664 13.53983168 -23 20 C-19.04 19.505 -19.04 19.505 -15 19 C-15.0825 18.071875 -15.165 17.14375 -15.25 16.1875 C-15.25 10.87822104 -13.49730165 5.64775584 -11 1 C-7.24845001 -1.59781466 -4.33866114 -1.18327122 0 0 Z M-74.54345703 61.66113281 C-91.46112908 80.83264856 -100.54770697 105.31465033 -99 131 C-96.77011869 157.50732145 -84.85257596 180.56472177 -64.7109375 197.87890625 C-44.25848294 213.88133108 -19.83651337 221.25767937 6.13427734 218.79785156 C32.39687191 215.45591276 54.78052394 201.64041249 70.9453125 180.88671875 C85.66665018 160.20407893 91.9043685 135.61317526 88.17773438 110.41040039 C86.78703576 102.18426932 84.50572184 94.5972562 81 87 C80.72559082 86.40477539 80.45118164 85.80955078 80.16845703 85.19628906 C69.25186531 62.01135519 49.98384926 45.11224036 26 36 C17.91556161 33.45110372 9.49138631 31.34937725 1 31 C-0.34384766 30.94005859 -0.34384766 30.94005859 -1.71484375 30.87890625 C-29.3369181 30.26185597 -55.7447845 41.42921762 -74.54345703 61.66113281 Z " fill="#D12062" transform="translate(969,21)"/>
<path d="M0 0 C17.19387994 13.64721874 28.18479213 33.09860135 31.46484375 54.78515625 C31.74109665 57.23358947 31.93150574 59.66476413 32.0625 62.125 C32.10375 62.82753906 32.145 63.53007812 32.1875 64.25390625 C32.8292016 86.03165415 24.40518026 106.97207854 10.0625 123.125 C9.47082031 123.81078125 8.87914062 124.4965625 8.26953125 125.203125 C-3.58792164 138.0465921 -20.98533254 146.08811439 -37.9375 149.125 C-38.65421875 149.25648438 -39.3709375 149.38796875 -40.109375 149.5234375 C-61.50063924 152.79400269 -84.31358185 146.68671866 -101.75 134.09375 C-115.85468608 122.96671987 -126.03610672 109.15856697 -131.9375 92.125 C-132.2571875 91.22523438 -132.576875 90.32546875 -132.90625 89.3984375 C-137.57860186 73.3480436 -136.76913848 53.70161332 -130.9375 38.125 C-130.586875 37.09890625 -130.23625 36.0728125 -129.875 35.015625 C-126.82695976 26.8451838 -122.15505134 20.02416632 -116.9375 13.125 C-116.38320313 12.38378906 -115.82890625 11.64257812 -115.2578125 10.87890625 C-87.41561917 -23.54290988 -33.9476031 -25.72380376 0 0 Z M-74.625 -0.3125 C-75.33760986 -0.03365967 -76.05021973 0.24518066 -76.78442383 0.5324707 C-85.57504985 4.06805869 -92.73866892 8.77671003 -100 14.8125 C-100.85984497 15.52635864 -100.85984497 15.52635864 -101.73706055 16.25463867 C-104.35270418 18.49916779 -105.82776245 19.79578734 -106.9375 23.125 C-100.3059201 27.52641661 -93.32023496 31.0374132 -86.16357422 34.48364258 C-84.17352439 35.44424607 -82.19028863 36.41804227 -80.20703125 37.39257812 C-78.93528669 38.00862002 -77.66316444 38.62388298 -76.390625 39.23828125 C-75.24754883 39.79298096 -74.10447266 40.34768066 -72.92675781 40.91918945 C-69.85645513 42.37439488 -69.85645513 42.37439488 -65.9375 42.125 C-64.38819445 39.02638889 -64.45543055 35.67509743 -64.18359375 32.265625 C-64.11842056 31.48362732 -64.05324738 30.70162964 -63.98609924 29.89593506 C-63.84886601 28.23840283 -63.71366269 26.58070149 -63.58032227 24.92285156 C-63.37690586 22.39864987 -63.16652455 19.87510282 -62.95507812 17.3515625 C-62.82249959 15.73961758 -62.69032526 14.12763936 -62.55859375 12.515625 C-62.49610947 11.76541077 -62.43362518 11.01519653 -62.36924744 10.24224854 C-62.04675428 6.19175509 -61.87378925 2.18806313 -61.9375 -1.875 C-66.68920258 -3.42826448 -70.17312485 -2.08557532 -74.625 -0.3125 Z M-41.9375 -1.875 C-41.89507952 0.47303082 -41.78848003 2.78365079 -41.6328125 5.125 C-41.58937714 5.83470947 -41.54594177 6.54441895 -41.50119019 7.27563477 C-41.4077353 8.78563744 -41.31171873 10.29548337 -41.21337891 11.80517578 C-41.06495534 14.08724816 -40.92432432 16.36969029 -40.78515625 18.65234375 C-40.60678714 21.54019433 -40.41464231 24.42653573 -40.20800781 27.3125 C-40.04697899 29.58201816 -39.90030747 31.85274181 -39.78417969 34.125 C-39.64014505 38.29138857 -39.64014505 38.29138857 -37.35961914 41.54760742 C-33.56080199 42.45318171 -30.82324025 40.62486225 -27.50390625 38.92578125 C-26.78895493 38.57492966 -26.0740036 38.22407806 -25.33738708 37.8625946 C-23.05061796 36.73562152 -20.7756457 35.58674074 -18.5 34.4375 C-16.97139884 33.6815343 -15.44210858 32.92696029 -13.91210938 32.17382812 C-5.27804661 27.92116179 -5.27804661 27.92116179 3.0625 23.125 C-4.24046273 9.99327509 -19.1609126 2.7076635 -32.84375 -2.0625 C-37.63984095 -3.50677814 -37.63984095 -3.50677814 -41.9375 -1.875 Z M-117.9375 41.125 C-123.76498293 55.16393614 -124.28688456 69.1641958 -121.0625 83.9375 C-120.88895996 84.73293213 -120.71541992 85.52836426 -120.53662109 86.34790039 C-120.07639345 88.29228783 -119.51532823 90.21226203 -118.9375 92.125 C-118.2775 92.455 -117.6175 92.785 -116.9375 93.125 C-111.76759651 89.69795329 -106.60686523 86.25745883 -101.453125 82.80615234 C-99.81987953 81.71468027 -98.18457559 80.62627985 -96.546875 79.54150391 C-94.33794993 78.0778093 -92.13700814 76.60279453 -89.9375 75.125 C-89.26203125 74.68115967 -88.5865625 74.23731934 -87.890625 73.7800293 C-84.53445588 71.50776759 -82.55414032 69.82687204 -80.9375 66.125 C-87.70858639 60.62461186 -94.83068306 55.71734778 -102.09716797 50.90649414 C-103.96492067 49.66933717 -105.8283548 48.42586332 -107.69140625 47.18164062 C-112.55884889 43.21516804 -112.55884889 43.21516804 -117.9375 41.125 Z M7.984375 43.87109375 C7.1591333 44.45713379 6.3338916 45.04317383 5.48364258 45.64697266 C4.60216553 46.27909668 3.72068848 46.9112207 2.8125 47.5625 C-4.46811967 52.74655811 -11.81150347 57.66893223 -19.48046875 62.2578125 C-22.19232368 64.31864979 -22.35199705 64.94207559 -22.9375 68.125 C-15.21515997 73.8141867 -7.39002077 79.32497514 0.5625 84.6875 C1.63242187 85.42291016 2.70234375 86.15832031 3.8046875 86.91601562 C4.82820313 87.60501953 5.85171875 88.29402344 6.90625 89.00390625 C7.82599609 89.6285376 8.74574219 90.25316895 9.69335938 90.89672852 C10.47517578 91.30205811 11.25699219 91.7073877 12.0625 92.125 C13.0525 91.795 14.0425 91.465 15.0625 91.125 C16.06067622 89.03716712 16.06067622 89.03716712 16.6875 86.5 C16.92726563 85.66210938 17.16703125 84.82421875 17.4140625 83.9609375 C20.45600725 70.65701048 19.71642297 57.19866933 16.0625 44.125 C15.4025 43.135 14.7425 42.145 14.0625 41.125 C11.30415577 41.125 10.21993887 42.26858185 7.984375 43.87109375 Z M-64.97265625 48.3125 C-70.78015792 53.50456315 -73.93852589 57.95391424 -74.4375 65.9375 C-74.19338785 72.62007012 -71.78125984 78.3974249 -66.9296875 83.05078125 C-60.20165266 88.25197424 -54.33660114 88.87206109 -45.9375 88.125 C-39.69031204 86.40521028 -35.48397746 82.43305015 -31.9375 77.125 C-29.20716659 71.54022711 -28.82902271 64.88187512 -30.58984375 58.9140625 C-32.9056745 53.72580648 -36.42373 50.47229011 -40.9375 47.125 C-42.5875 47.785 -44.2375 48.445 -45.9375 49.125 C-45.5193299 54.00365115 -43.39715662 55.83832621 -39.9375 59.125 C-38.58140711 63.19327866 -38.4076014 66.87129346 -38.9375 71.125 C-41.02069591 75.21699196 -42.69600526 77.43299578 -46.9375 79.125 C-51.92610331 79.8329536 -55.87748587 79.63607824 -60.4375 77.4375 C-64.33513645 73.83218629 -64.8136729 71.42518458 -65.3125 66.1875 C-65.20754132 61.90841548 -63.64463798 59.45091238 -60.9375 56.125 C-60.339375 55.609375 -59.74125 55.09375 -59.125 54.5625 C-58.733125 54.088125 -58.34125 53.61375 -57.9375 53.125 C-58.16793864 50.47033951 -58.16793864 50.47033951 -58.9375 48.125 C-61.56120982 47.09195094 -62.4808539 46.85855007 -64.97265625 48.3125 Z M-72.67456055 93.77734375 C-73.41510178 94.13771729 -74.15564301 94.49809082 -74.91862488 94.86938477 C-75.71247086 95.26311279 -76.50631683 95.65684082 -77.32421875 96.0625 C-78.14122757 96.46202881 -78.95823639 96.86155762 -79.80000305 97.27319336 C-82.41107858 98.55162133 -85.01804431 99.83819497 -87.625 101.125 C-89.3936158 101.99272662 -91.16249292 102.85992086 -92.93164062 103.7265625 C-97.26998437 105.85320719 -101.60465966 107.98716641 -105.9375 110.125 C-104.24550119 117.75718288 -96.86476423 122.24657423 -90.67578125 126.42578125 C-82.03416643 131.78826691 -72.32349809 137.125 -61.9375 137.125 C-61.64234575 127.33571726 -62.13046952 117.64149533 -62.8125 107.875 C-62.89097168 106.67254639 -62.96944336 105.47009277 -63.05029297 104.23120117 C-63.13424316 103.09787354 -63.21819336 101.9645459 -63.3046875 100.796875 C-63.37800293 99.7769043 -63.45131836 98.75693359 -63.52685547 97.70605469 C-63.79029962 94.89396851 -63.79029962 94.89396851 -65.9375 92.125 C-68.97380254 92.125 -70.03506409 92.48011682 -72.67456055 93.77734375 Z M-38.9375 93.125 C-39.24088455 95.87279173 -39.48581225 98.60376134 -39.69140625 101.359375 C-39.75657944 102.18955139 -39.82175262 103.01972778 -39.88890076 103.87506104 C-40.02631142 105.63691847 -40.16150441 107.39895003 -40.29467773 109.16113281 C-40.4981101 111.85002003 -40.70840511 114.53830042 -40.91992188 117.2265625 C-41.05249114 118.93746845 -41.18466524 120.64840507 -41.31640625 122.359375 C-41.37889053 123.16163513 -41.44137482 123.96389526 -41.50575256 124.79046631 C-41.79010943 128.57883441 -42.01311355 132.32244667 -41.9375 136.125 C-35.4514137 138.28702877 -26.60851358 133.28998445 -20.48046875 130.6171875 C-12.02698667 126.38533553 -0.6395393 119.36927357 3.0625 110.125 C2.13953125 109.66351563 1.2165625 109.20203125 0.265625 108.7265625 C-0.35401123 108.41654297 -0.97364746 108.10652344 -1.61206055 107.78710938 C-3.01391907 107.08659238 -4.41644337 106.38740639 -5.81958008 105.68945312 C-9.98866316 103.61283932 -14.14097952 101.50831147 -18.27734375 99.3671875 C-19.16647461 98.91134277 -20.05560547 98.45549805 -20.97167969 97.98583984 C-22.71734305 97.09052078 -24.45902884 96.18739618 -26.19628906 95.27587891 C-27.00163086 94.86515137 -27.80697266 94.45442383 -28.63671875 94.03125 C-29.70152466 93.47920898 -29.70152466 93.47920898 -30.7878418 92.91601562 C-33.37626579 91.96354615 -36.7881554 90.9756554 -38.9375 93.125 Z " fill="#D12062" transform="translate(1015.9375,79.875)"/>
<path d="M0 0 C1.5541289 -0.01154338 3.10821743 -0.03203257 4.66210938 -0.06152344 C15.3013123 -0.26243253 25.27663367 -0.06065389 34.27124023 6.48266602 C41.98123529 14.743375 43.22941522 22.85631987 43.10327148 33.85375977 C42.59719892 42.26602257 38.93465031 47.54744527 32.89624023 53.29516602 C29.95874023 55.29516602 29.95874023 55.29516602 27.89624023 56.29516602 C29.56892624 61.84654421 31.63066738 67.08442837 34.06811523 72.34204102 C34.35618042 72.96574585 34.64424561 73.58945068 34.94104004 74.23205566 C36.14594706 76.83300658 37.35566289 79.43142181 38.58227539 82.0222168 C39.4856039 83.93590326 40.37170765 85.8568233 41.25561523 87.77954102 C41.78638672 88.91101563 42.3171582 90.04249023 42.86401367 91.20825195 C43.95777409 94.47918543 43.92644478 96.05327419 42.89624023 99.29516602 C40.12379009 99.43004197 37.35786935 99.52917408 34.58374023 99.60766602 C33.79805664 99.64956055 33.01237305 99.69145508 32.20288086 99.73461914 C31.06689453 99.75878906 31.06689453 99.75878906 29.90795898 99.78344727 C28.86321411 99.82272339 28.86321411 99.82272339 27.79736328 99.86279297 C25.89624023 99.29516602 25.89624023 99.29516602 24.35522461 97.21459961 C22.68370321 93.86987858 21.07518942 90.50522457 19.54077148 87.09594727 C19.0810218 86.0815583 19.0810218 86.0815583 18.61198425 85.04667664 C17.96927893 83.62621282 17.3281345 82.20504183 16.68847656 80.78320312 C15.70615255 78.60191999 14.71654146 76.42404457 13.72631836 74.24633789 C13.10152881 72.86307327 12.47716471 71.47961639 11.85327148 70.09594727 C11.55644974 69.44386795 11.25962799 68.79178864 10.95381165 68.11994934 C8.89624023 63.52472822 8.89624023 63.52472822 8.89624023 61.29516602 C2.95624023 61.29516602 -2.98375977 61.29516602 -9.10375977 61.29516602 C-9.0921582 63.95450195 -9.08055664 66.61383789 -9.06860352 69.35375977 C-9.06081325 71.91861858 -9.05473632 74.48347609 -9.04882812 77.04833984 C-9.04378758 78.83610622 -9.03695522 80.62386846 -9.02832031 82.41162109 C-9.01624246 84.9756777 -9.01052882 87.53967999 -9.00610352 90.10375977 C-9.00094223 90.90792831 -8.99578094 91.71209686 -8.99046326 92.54063416 C-8.99026762 94.45918316 -9.04173994 96.3776197 -9.10375977 98.29516602 C-10.92491979 100.11632604 -13.41047741 99.42751681 -15.83032227 99.43188477 C-16.95567383 99.42608398 -16.95567383 99.42608398 -18.10375977 99.42016602 C-19.22911133 99.4259668 -19.22911133 99.4259668 -20.37719727 99.43188477 C-25.97714923 99.42177655 -25.97714923 99.42177655 -27.10375977 98.29516602 C-27.20968694 95.35344169 -27.250536 92.43506796 -27.24902344 89.49267578 C-27.25238205 88.56915314 -27.25574066 87.64563049 -27.25920105 86.69412231 C-27.26874175 83.62492548 -27.27065571 80.55578302 -27.27172852 77.48657227 C-27.27493889 75.36286903 -27.27830279 73.23916602 -27.28181458 71.11546326 C-27.28781363 66.65737393 -27.28965368 62.19930402 -27.2890625 57.74121094 C-27.28896082 52.01642363 -27.30261526 46.29176021 -27.31983471 40.5670023 C-27.33092936 36.17908654 -27.33298249 31.79120098 -27.33245277 27.40327263 C-27.33363664 25.29206859 -27.338081 23.18086386 -27.34578514 21.06967354 C-27.35553421 18.12204326 -27.35272722 15.17468503 -27.34667969 12.22705078 C-27.35229919 11.34749222 -27.3579187 10.46793365 -27.3637085 9.5617218 C-27.33207499 3.52348124 -27.33207499 3.52348124 -25.10375977 1.29516602 C-17.06543609 -0.53560683 -8.21980395 0.04237458 0 0 Z M-9.10375977 17.29516602 C-9.13262315 21.7743193 -9.15051164 26.25344893 -9.16625977 30.73266602 C-9.17463867 32.01206055 -9.18301758 33.29145508 -9.19165039 34.60961914 C-9.19487305 35.82456055 -9.1980957 37.03950195 -9.20141602 38.29125977 C-9.20665283 39.41717529 -9.21188965 40.54309082 -9.21728516 41.703125 C-9.39921425 44.22487472 -9.39921425 44.22487472 -8.10375977 45.29516602 C-4.90418931 45.57560645 -1.68914568 45.52705382 1.52124023 45.54516602 C2.85735352 45.57610352 2.85735352 45.57610352 4.22045898 45.60766602 C10.96091803 45.64737417 15.83354841 44.77842966 21.20874023 40.42016602 C24.12439696 36.74859829 25.12877004 33.95049631 24.70874023 29.29516602 C23.92935036 24.53820022 22.47403804 21.45775387 18.52124023 18.54516602 C13.73540273 16.26619578 9.21147228 16.15875943 3.95874023 16.17016602 C2.18176758 16.16629883 2.18176758 16.16629883 0.36889648 16.16235352 C-2.88316564 16.28672935 -5.90481604 16.72996971 -9.10375977 17.29516602 Z " fill="#D12062" transform="translate(326.103759765625,88.704833984375)"/>
<path d="M0 0 C7.38278447 7.83851191 7.19131572 15.86601823 7.12890625 26.1640625 C7.12844803 27.39476471 7.12798981 28.62546692 7.1275177 29.89346313 C7.12450557 32.48383555 7.11665052 35.07420631 7.10424805 37.66455078 C7.08590544 41.6475874 7.08373908 45.63020723 7.08398438 49.61328125 C7.07907213 52.13021036 7.0732451 54.64713789 7.06640625 57.1640625 C7.06529343 58.36187347 7.0641806 59.55968445 7.06303406 60.79379272 C7.05665421 61.89228546 7.05027435 62.9907782 7.04370117 64.12255859 C7.03798347 65.5798085 7.03798347 65.5798085 7.03215027 67.0664978 C6.8984375 69.265625 6.8984375 69.265625 5.8984375 70.265625 C1.79657266 70.59377419 -0.6452118 70.49352709 -4.36328125 68.63671875 C-8.83108942 66.99805557 -11.45608944 67.65875772 -15.7890625 69.078125 C-24.62654847 71.61234379 -33.69721883 73.19248473 -42.421875 69.30078125 C-47.1166602 66.4074834 -49.86627975 61.81653659 -51.59765625 56.671875 C-53.20247786 49.00854078 -53.19985297 41.04900232 -49.1015625 34.265625 C-44.57524024 28.5753913 -38.67544857 26.49170799 -31.6640625 25.53515625 C-30.14435568 25.37195749 -28.62343935 25.21966474 -27.1015625 25.078125 C-26.34617187 24.99626953 -25.59078125 24.91441406 -24.8125 24.83007812 C-19.88665998 24.32649139 -15.05193606 24.19249448 -10.1015625 24.265625 C-10.4109375 22.986875 -10.7203125 21.708125 -11.0390625 20.390625 C-11.21308594 19.67132813 -11.38710938 18.95203125 -11.56640625 18.2109375 C-12.05003242 16.2070593 -12.05003242 16.2070593 -13.1015625 14.265625 C-16.57772462 13.10690429 -19.25667524 13.16868752 -22.921875 13.203125 C-23.58113983 13.20691162 -24.24040466 13.21069824 -24.91964722 13.21459961 C-27.02201906 13.2268037 -29.12425301 13.24544283 -31.2265625 13.265625 C-33.99999605 13.29211675 -36.77336325 13.3121484 -39.546875 13.328125 C-40.77937988 13.33972656 -42.01188477 13.35132813 -43.28173828 13.36328125 C-46.1015625 13.265625 -46.1015625 13.265625 -47.1015625 12.265625 C-47.17415196 10.07923047 -47.18530033 7.89062111 -47.1640625 5.703125 C-47.15503906 4.50558594 -47.14601563 3.30804688 -47.13671875 2.07421875 C-47.12511719 1.14738281 -47.11351562 0.22054687 -47.1015625 -0.734375 C-42.86859881 -2.70204172 -38.69757606 -3.35867611 -34.1015625 -3.859375 C-33.35189209 -3.9421167 -32.60222168 -4.0248584 -31.82983398 -4.11010742 C-7.97284745 -6.57982206 -7.97284745 -6.57982206 0 0 Z M-33.1015625 41.265625 C-34.83421354 44.73092709 -34.5659251 48.47669535 -34.1015625 52.265625 C-32.78776432 54.99624076 -32.78776432 54.99624076 -30.1015625 56.265625 C-23.09412124 57.14155516 -16.84993901 55.10609132 -10.1015625 53.265625 C-10.1015625 48.315625 -10.1015625 43.365625 -10.1015625 38.265625 C-12.6230646 38.18389564 -15.14186167 38.12479127 -17.6640625 38.078125 C-18.36853516 38.05298828 -19.07300781 38.02785156 -19.79882812 38.00195312 C-24.97551717 37.930386 -28.5125006 38.8263939 -33.1015625 41.265625 Z " fill="#D12062" transform="translate(555.1015625,118.734375)"/>
<path d="M0 0 C4.56034724 5.80407831 6.18606116 9.95842313 6.19189453 17.2956543 C6.19504669 18.43330734 6.19819885 19.57096039 6.20144653 20.74308777 C6.1994223 21.96611099 6.19739807 23.18913422 6.1953125 24.44921875 C6.19626923 25.70636185 6.19722595 26.96350494 6.19821167 28.25874329 C6.19889201 30.91414847 6.19754989 33.56946151 6.19287109 36.22485352 C6.18715663 39.63475806 6.19046691 43.04458419 6.19644356 46.45448589 C6.20091456 49.70273305 6.19779018 52.95097058 6.1953125 56.19921875 C6.19733673 57.42831467 6.19936096 58.65741058 6.20144653 59.92375183 C6.19671829 61.61604668 6.19671829 61.61604668 6.19189453 63.3425293 C6.19109894 64.34084274 6.19030334 65.33915619 6.18948364 66.36772156 C6.0625 68.625 6.0625 68.625 5.0625 69.625 C0.96063516 69.95314919 -1.4811493 69.85290209 -5.19921875 67.99609375 C-9.66692788 66.35746689 -12.29210483 67.01798428 -16.625 68.4375 C-24.60852229 70.72922961 -32.83864118 72.49641834 -40.875 69.375 C-41.885625 68.7975 -42.89625 68.22 -43.9375 67.625 C-44.824375 67.13 -45.71125 66.635 -46.625 66.125 C-51.4823691 60.87379017 -53.15936004 53.97520424 -53.375 46.9375 C-53.07296103 40.31152017 -51.79489368 35.08400395 -47 30.3125 C-37.11982078 22.80029762 -22.74956482 23.96348802 -10.9375 23.625 C-11.19304054 22.16390937 -11.46750372 20.70611904 -11.75 19.25 C-11.90082031 18.43789062 -12.05164063 17.62578125 -12.20703125 16.7890625 C-12.81294942 14.26679359 -12.81294942 14.26679359 -15.9375 12.625 C-19.2377764 12.3475435 -19.2377764 12.3475435 -23.01171875 12.4296875 C-24.03746758 12.43393234 -24.03746758 12.43393234 -25.0839386 12.43826294 C-27.26447165 12.44944316 -29.44459145 12.47454309 -31.625 12.5 C-33.10481177 12.51003262 -34.58462999 12.51915798 -36.06445312 12.52734375 C-39.688936 12.54937519 -43.31317766 12.58388998 -46.9375 12.625 C-48.31976016 9.86047967 -48.03275387 7.5788637 -48 4.5 C-47.99097656 3.40429688 -47.98195313 2.30859375 -47.97265625 1.1796875 C-47.96105469 0.33664063 -47.94945312 -0.50640625 -47.9375 -1.375 C-43.70453631 -3.34266672 -39.53351356 -3.99930111 -34.9375 -4.5 C-34.18782959 -4.5827417 -33.43815918 -4.6654834 -32.66577148 -4.75073242 C-8.91673148 -7.20927226 -8.91673148 -7.20927226 0 0 Z M-34.9375 42.625 C-35.63628984 46.83398999 -35.60826045 50.47911756 -33.4375 54.1875 C-27.90886875 57.36646297 -22.28913201 55.56720647 -16.4375 54.125 C-14.6225 53.63 -12.8075 53.135 -10.9375 52.625 C-10.9375 47.675 -10.9375 42.725 -10.9375 37.625 C-23.96478605 36.68336216 -23.96478605 36.68336216 -34.9375 42.625 Z " fill="#D12062" transform="translate(678.9375,119.375)"/>
<path d="M0 0 C8.79110735 8.72751887 10.17587717 19.18540677 10.3125 31.125 C10.25378255 42.4797798 9.02314945 53.63735647 1 62.3125 C-8.01307758 69.90737075 -18.696498 70.08834755 -30 69.3125 C-37.84739028 67.90346662 -44.01751338 64.9438715 -49.1875 58.75 C-54.96056916 50.41435916 -55.53340265 40.73938051 -55.4375 30.875 C-55.42920166 29.77551025 -55.42090332 28.67602051 -55.41235352 27.54321289 C-55.18795156 16.79667512 -53.76385548 7.95542271 -45.9921875 -0.06640625 C-33.97323789 -9.84653191 -11.83592052 -9.86003854 0 0 Z M-34.75 13.9375 C-39.40116824 22.77471966 -39.29853652 34.4328811 -36.75 43.875 C-35.49521586 47.52097657 -34.20984774 50.00542194 -31 52.3125 C-25.53454202 54.13431933 -19.99067815 54.00018881 -14.5625 52.125 C-10.53234721 49.27440412 -8.97727683 46.04271576 -8 41.3125 C-7.75834511 38.04466689 -7.76900457 34.77591298 -7.75 31.5 C-7.729375 30.62279297 -7.70875 29.74558594 -7.6875 28.84179688 C-7.65377192 23.20499219 -8.29101233 19.28542736 -11 14.3125 C-15.39840028 10.13401974 -18.85720818 9.00433394 -24.9375 9.09375 C-28.94718385 9.5190195 -31.83956967 11.23495755 -34.75 13.9375 Z " fill="#D12062" transform="translate(434,120.6875)"/>
<path d="M0 0 C1.20487061 0.18876709 1.20487061 0.18876709 2.43408203 0.38134766 C4.40757884 0.72295532 6.3630629 1.16556509 8.3125 1.625 C9.78443312 4.56886623 9.16186173 6.99890036 8.875 10.25 C8.77316406 11.43851563 8.67132812 12.62703125 8.56640625 13.8515625 C8.48261719 14.76679688 8.39882813 15.68203125 8.3125 16.625 C-1.0625 16.79789959 -1.0625 16.79789959 -5.6875 16.125 C-12.73501012 15.15489739 -19.61054544 14.32666629 -25.6875 18.625 C-29.85435472 24.22870117 -29.89358833 29.6565141 -29.9375 36.375 C-29.958125 37.1484375 -29.97875 37.921875 -30 38.71875 C-30.04025807 44.7172029 -29.31894169 50.53654707 -25.27050781 55.28808594 C-20.6548011 59.18623677 -13.34344069 57.80324783 -7.6875 57.625 C-5.35048962 57.31850684 -3.01604865 56.99026253 -0.6875 56.625 C1.98600529 56.54412884 4.63687312 56.57805918 7.3125 56.625 C10.62957317 66.99085366 10.62957317 66.99085366 8.3125 71.625 C5.93965123 72.29074135 3.66732441 72.8106399 1.25 73.25 C0.18048096 73.44456787 0.18048096 73.44456787 -0.91064453 73.64306641 C-13.28532473 75.71410852 -26.51054441 76.38809584 -37.5 69.4375 C-45.42644164 63.09634669 -47.40222423 54.3549392 -48.6875 44.625 C-49.52247325 31.87861152 -49.50818791 17.63315374 -40.84765625 7.46484375 C-29.64258385 -3.69970398 -14.49755682 -2.29689692 0 0 Z " fill="#D12062" transform="translate(744.6875,115.375)"/>
<path d="M0 0 C1.50156874 3.00313748 1.09281204 5.79067522 1.0625 9.125 C1.05347656 10.40632813 1.04445313 11.68765625 1.03515625 13.0078125 C1.02355469 13.99523437 1.01195312 14.98265625 1 16 C2.28777344 15.98839844 3.57554687 15.97679688 4.90234375 15.96484375 C6.58072772 15.9554673 8.25911326 15.94636695 9.9375 15.9375 C11.21270508 15.92493164 11.21270508 15.92493164 12.51367188 15.91210938 C13.32255859 15.90888672 14.13144531 15.90566406 14.96484375 15.90234375 C15.7137085 15.89710693 16.46257324 15.89187012 17.23413086 15.88647461 C19 16 19 16 20 17 C20.12537741 19.14307896 20.17574364 21.29078886 20.1875 23.4375 C20.20167969 24.61183594 20.21585938 25.78617188 20.23046875 26.99609375 C20 30 20 30 18 32 C15.0906442 32.14517744 12.280054 32.18630796 9.375 32.125 C8.57320312 32.11597656 7.77140625 32.10695312 6.9453125 32.09765625 C4.96341477 32.07406223 2.98167019 32.03819065 1 32 C1.11807628 37.37531833 1.24231206 42.75044513 1.37231445 48.12548828 C1.41568565 49.95487575 1.45735911 51.78430427 1.49731445 53.61376953 C1.55496418 56.24003486 1.61867365 58.8660931 1.68359375 61.4921875 C1.70030624 62.31306854 1.71701874 63.13394958 1.73423767 63.97970581 C1.7431387 68.1233696 1.7431387 68.1233696 3 72 C5.5033648 72.26008985 7.92761831 72.42120408 10.4375 72.5 C17.73022531 72.73022531 17.73022531 72.73022531 20 75 C20.1953125 78.0390625 20.1953125 78.0390625 20.125 81.625 C20.10695313 82.81351562 20.08890625 84.00203125 20.0703125 85.2265625 C20.04710937 86.14179688 20.02390625 87.05703125 20 88 C11.74049379 90.69698162 1.09643312 91.96828404 -7.1875 88.8125 C-11.85075405 85.80729184 -14.36859354 82.27069781 -16 77 C-16.94550719 71.61556753 -17.13298711 66.44647842 -17.09765625 61.00390625 C-17.0962413 60.17036118 -17.09482635 59.3368161 -17.09336853 58.47801208 C-17.08781168 55.83947014 -17.0752674 53.20101591 -17.0625 50.5625 C-17.05747942 48.76367311 -17.05291749 46.96484487 -17.04882812 45.16601562 C-17.03785643 40.77731042 -17.02062196 36.38867004 -17 32 C-18.11375 32.04125 -19.2275 32.0825 -20.375 32.125 C-24 32 -24 32 -26 30 C-26.23046875 26.99609375 -26.23046875 26.99609375 -26.1875 23.4375 C-26.17783203 21.67212891 -26.17783203 21.67212891 -26.16796875 19.87109375 C-26 17 -26 17 -25 16 C-22.32941149 15.85884839 -19.67567762 15.95752893 -17 16 C-17.08701172 14.75283203 -17.08701172 14.75283203 -17.17578125 13.48046875 C-17.22089844 12.39378906 -17.26601563 11.30710937 -17.3125 10.1875 C-17.37050781 9.10855469 -17.42851563 8.02960938 -17.48828125 6.91796875 C-17 4 -17 4 -14.59375 2.15625 C-9.55622514 -0.08939361 -5.47866309 -0.09131105 0 0 Z " fill="#D12062" transform="translate(788,100)"/>
<path d="M0 0 C1 1 1 1 1.09765625 4.37890625 C1.09191424 5.77347492 1.07890228 7.16801597 1.0625 8.5625 C1.041875 11.016875 1.02125 13.47125 1 16 C7.27 16 13.54 16 20 16 C21.36271133 18.72542267 21.16923601 20.96087274 21.1875 24 C21.20167969 25.0725 21.21585937 26.145 21.23046875 27.25 C21 30 21 30 19 32 C17.12060547 32.22705078 17.12060547 32.22705078 14.8671875 32.1953125 C14.06152344 32.18886719 13.25585938 32.18242187 12.42578125 32.17578125 C11.16314453 32.15064453 11.16314453 32.15064453 9.875 32.125 C8.60076172 32.11146484 8.60076172 32.11146484 7.30078125 32.09765625 C5.20040116 32.07405647 3.10016556 32.03818483 1 32 C1.09378695 36.89331525 1.19993625 41.7861504 1.31738281 46.67895508 C1.35558696 48.34229248 1.39045463 50.00571008 1.421875 51.66918945 C1.46771234 54.0649068 1.52567467 56.46007609 1.5859375 58.85546875 C1.59748871 59.5952446 1.60903992 60.33502045 1.62094116 61.09721375 C1.73581135 65.14605316 2.21350836 68.34866183 4 72 C5.05960937 72.02578125 6.11921875 72.0515625 7.2109375 72.078125 C8.59900001 72.1343978 9.98701925 72.19174533 11.375 72.25 C12.07367188 72.26417969 12.77234375 72.27835937 13.4921875 72.29296875 C15.5234375 72.390625 15.5234375 72.390625 19 73 C21.33062144 75.75437079 21.27099585 78.6081949 21.25 82.125 C21.25773437 83.42824219 21.25773437 83.42824219 21.265625 84.7578125 C21 87 21 87 19 89 C10.14157997 91.02924159 -1.05246002 91.94513599 -9 87 C-13.80912377 83.66033072 -14.7605497 78.45725323 -16 73 C-16.35128554 69.67175103 -16.35422346 66.39837814 -16.29296875 63.0546875 C-16.28872391 62.15879913 -16.28447906 61.26291077 -16.28010559 60.33987427 C-16.26350154 57.51792521 -16.22588593 54.69672801 -16.1875 51.875 C-16.17242946 49.94532292 -16.15874524 48.01563448 -16.14648438 46.0859375 C-16.1136583 41.39034153 -16.06200616 36.69529759 -16 32 C-17.11375 32.020625 -18.2275 32.04125 -19.375 32.0625 C-23 32 -23 32 -25 31 C-25.02685412 28.68756208 -25.04632841 26.3750373 -25.0625 24.0625 C-25.07410156 22.77472656 -25.08570313 21.48695312 -25.09765625 20.16015625 C-25 17 -25 17 -24 16 C-21.32941149 15.85884839 -18.67567762 15.95752893 -16 16 C-16 11.71 -16 7.42 -16 3 C-10.38058292 0.92513831 -5.98922169 -0.49910181 0 0 Z " fill="#D12062" transform="translate(475,100)"/>
<path d="M0 0 C0.08078641 2.12438339 0.13909141 4.2496323 0.1875 6.375 C0.23970703 8.15003906 0.23970703 8.15003906 0.29296875 9.9609375 C0.19628906 10.96382812 0.09960938 11.96671875 0 13 C-3.35856773 15.23904516 -6.26441476 15.95616127 -10.13671875 16.92578125 C-14.23095509 18.46181808 -17.86695599 19.85590053 -21 23 C-22.17614854 26.65172676 -22.07224674 30.17758399 -22 33.98828125 C-22.0163147 35.57578438 -22.0163147 35.57578438 -22.03295898 37.19535828 C-22.05911179 40.56877482 -22.03027568 43.93916409 -22 47.3125 C-22.00809149 49.60222923 -22.01976832 51.8919488 -22.03515625 54.18164062 C-22.06500723 59.78831295 -22.04974245 65.39349929 -22 71 C-24.64590014 71.02684679 -27.29153096 71.04676357 -29.9375 71.0625 C-30.69224609 71.07087891 -31.44699219 71.07925781 -32.22460938 71.08789062 C-34.14994313 71.09652441 -36.07535581 71.05224333 -38 71 C-39.86985821 69.13014179 -39.12779348 65.96852379 -39.12939453 63.4765625 C-39.13114685 62.79527283 -39.13289917 62.11398315 -39.13470459 61.41204834 C-39.13912242 59.14967333 -39.13618538 56.88737587 -39.1328125 54.625 C-39.13348556 53.0594074 -39.1344556 51.4938149 -39.13571167 49.92822266 C-39.13718855 46.64289355 -39.13503441 43.35759158 -39.13037109 40.07226562 C-39.1246738 35.85179484 -39.12795286 31.63138764 -39.13394356 27.41091919 C-39.13754944 24.17683428 -39.13641046 20.94276455 -39.13381577 17.7086792 C-39.13314657 16.15207919 -39.13397466 14.59547782 -39.13629532 13.03887939 C-39.1388223 10.86702804 -39.13498065 8.69528104 -39.12939453 6.5234375 C-39.12859894 5.28513184 -39.12780334 4.04682617 -39.12698364 2.77099609 C-39 0 -39 0 -38 -1 C-35.48863896 -1.09975032 -33.01096585 -1.13882183 -30.5 -1.125 C-29.79746094 -1.12886719 -29.09492187 -1.13273437 -28.37109375 -1.13671875 C-23.12661378 -1.12661378 -23.12661378 -1.12661378 -22 0 C-21.95936168 1.66617115 -21.957279 3.33388095 -22 5 C-21.19175781 4.57847656 -20.38351562 4.15695313 -19.55078125 3.72265625 C-18.48214844 3.17480469 -17.41351562 2.62695312 -16.3125 2.0625 C-15.25675781 1.51722656 -14.20101562 0.97195312 -13.11328125 0.41015625 C-7.93801347 -1.93397382 -5.2049026 -2.52809555 0 0 Z " fill="#D12062" transform="translate(618,117)"/>
<path d="M0 0 C1.82619177 1.19692569 3.38985308 2.58125933 4.93359375 4.125 C5.26359375 2.805 5.59359375 1.485 5.93359375 0.125 C7.91359375 0.125 9.89359375 0.125 11.93359375 0.125 C12.03540883 6.81432017 12.1052329 13.50343887 12.15332031 20.19335938 C12.17337692 22.46687284 12.20062913 24.7403351 12.23535156 27.01367188 C12.28413087 30.29049349 12.30662272 33.56663025 12.32421875 36.84375 C12.34486389 37.85240112 12.36550903 38.86105225 12.38677979 39.90026855 C12.38895827 46.82523568 11.36453408 52.5225056 6.45050049 57.68225098 C1.54037576 61.973226 -2.55647041 62.30678838 -8.81640625 62.3125 C-9.50734375 62.32474609 -10.19828125 62.33699219 -10.91015625 62.34960938 C-15.6614939 62.363006 -19.55443196 61.61914856 -24.06640625 60.125 C-23.73640625 57.815 -23.40640625 55.505 -23.06640625 53.125 C-22.43734375 53.3415625 -21.80828125 53.558125 -21.16015625 53.78125 C-14.31007576 56.00958943 -8.73602247 57.50976084 -1.75390625 54.875 C2.01087965 52.42351151 3.52255035 50.35813019 4.93359375 46.125 C5.00024751 44.73060336 5.01897574 43.33330125 4.99609375 41.9375 C4.97546875 40.679375 4.95484375 39.42125 4.93359375 38.125 C4.17046875 38.764375 3.40734375 39.40375 2.62109375 40.0625 C-2.4911808 43.98587349 -7.86701859 43.60529689 -14.06640625 43.125 C-19.27201061 41.38979855 -21.886862 38.54103368 -25.06640625 34.125 C-28.47365845 27.25071924 -28.25146765 18.39673295 -26.2265625 11.09765625 C-24.01469913 6.14516755 -21.27942289 2.47992443 -16.4453125 -0.09765625 C-11.19812126 -1.81225569 -5.15338129 -2.18215011 0 0 Z M-17.25390625 9.375 C-20.97561833 15.02173557 -21.461628 20.20719869 -20.60546875 26.7578125 C-19.56516739 31.32609239 -17.32862777 34.10157714 -13.75390625 37 C-10.22749433 38.47617243 -7.86251625 38.59118895 -4.06640625 38.125 C0.7057393 35.87928445 3.14959215 33.11992798 5.23828125 28.3984375 C7.00906616 22.60856773 6.72318767 17.17987575 4.18359375 11.6875 C2.05738221 8.02569124 0.30660742 5.75946892 -3.921875 4.62890625 C-10.00634976 3.52160034 -12.9297249 4.92727061 -17.25390625 9.375 Z " fill="#D12062" transform="translate(795.06640625,252.875)"/>
<path d="M0 0 C1.18529297 -0.01836914 1.18529297 -0.01836914 2.39453125 -0.03710938 C7.04231548 -0.0487095 10.75195373 0.40875289 15.125 2.1875 C15.125 4.4975 15.125 6.8075 15.125 9.1875 C14.23039063 8.95933594 13.33578125 8.73117188 12.4140625 8.49609375 C2.58487768 6.15930461 -5.92253531 4.80303079 -15.0546875 9.88671875 C-19.83852399 13.30521135 -23.08336042 17.59369316 -24.875 23.1875 C-25.9176158 32.17594566 -25.25731329 39.74267295 -19.875 47.1875 C-16.06699494 51.50596151 -11.49612815 53.92521156 -5.7043457 54.34472656 C-3.29878017 54.38366692 -0.90549009 54.36198487 1.5 54.3125 C4.34625 54.27125 7.1925 54.23 10.125 54.1875 C10.125 47.2575 10.125 40.3275 10.125 33.1875 C5.175 33.1875 0.225 33.1875 -4.875 33.1875 C-4.875 31.5375 -4.875 29.8875 -4.875 28.1875 C2.055 28.1875 8.985 28.1875 16.125 28.1875 C16.125 38.4175 16.125 48.6475 16.125 59.1875 C5.26878006 61.90155499 -7.38591631 63.59459539 -17.8359375 58.44140625 C-25.05635442 54.00126481 -29.70983182 48.51751397 -32.48828125 40.39453125 C-34.09123975 31.24633376 -34.11825333 21.10153549 -28.875 13.1875 C-28.4625 12.55457031 -28.05 11.92164063 -27.625 11.26953125 C-20.81986031 2.20245592 -10.68193641 0.00862838 0 0 Z " fill="#D12062" transform="translate(639.875,235.8125)"/>
<path d="M0 0 C1.98 0 3.96 0 6 0 C6.33 8.91 6.66 17.82 7 27 C9.97 24.525 9.97 24.525 13 22 C18.63683363 20.12105546 24.75837174 20.25279058 30.375 22.125 C35.60425123 25.86017945 38.32707686 29.86103533 40 36 C40.97982322 45.28253581 40.63031875 53.29858307 35 61 C29.74403523 66.13082275 25.02868176 66.33572359 17.95703125 66.29296875 C12.891606 65.79111024 10.54135932 63.54135932 7 60 C6.505 62.475 6.505 62.475 6 65 C4.02 65 2.04 65 0 65 C0 43.55 0 22.1 0 0 Z M9.75 31.3125 C6.42397986 36.42031665 5.47742494 40.9381293 6 47 C7.41108071 53.21349826 9.82003603 56.36300402 15 60 C18.52492256 61.76246128 22.26816427 60.91840671 26 60 C30.32536024 56.99105375 32.12059381 53.4033464 33.55859375 48.46484375 C34.58118675 42.75461206 33.91743162 37.26141814 31.3125 32.0625 C28.25382019 28.01181593 25.51089985 26.37663498 20.5 25.625 C15.98353574 26.30246964 12.91928059 28.05518384 9.75 31.3125 Z " fill="#D12062" transform="translate(141,231)"/>
<path d="M0 0 C1.17852539 -0.00193359 1.17852539 -0.00193359 2.38085938 -0.00390625 C3.19232422 -0.00003906 4.00378906 0.00382813 4.83984375 0.0078125 C5.65517578 0.00394531 6.47050781 0.00007812 7.31054688 -0.00390625 C8.09494141 -0.00261719 8.87933594 -0.00132812 9.6875 0 C10.40043213 0.00112793 11.11336426 0.00225586 11.84790039 0.00341797 C13.77734375 0.1328125 13.77734375 0.1328125 16.77734375 1.1328125 C16.77734375 3.4428125 16.77734375 5.7528125 16.77734375 8.1328125 C16.10316406 7.97425781 15.42898437 7.81570312 14.734375 7.65234375 C6.97573356 6.28920067 -2.63419944 5.51945024 -9.578125 9.80078125 C-14.61261885 13.87860168 -17.52400721 17.82686881 -19.22265625 24.1328125 C-20.10163702 33.43631024 -19.26220721 39.57348606 -14.09765625 47.3203125 C-9.85946578 51.98357222 -4.92766168 53.91965447 1.296875 54.41015625 C6.59406425 54.46007741 11.60233179 54.32929083 16.77734375 53.1328125 C16.77734375 55.4428125 16.77734375 57.7528125 16.77734375 60.1328125 C8.31976748 62.95200459 -4.09922672 62.39497184 -12.11328125 58.45703125 C-20.07695851 53.45761164 -24.27183722 47.9852696 -27.22265625 39.1328125 C-27.9963694 27.95836517 -27.61069768 18.5441381 -20.53515625 9.3203125 C-15.13295844 3.50573317 -7.93180317 0.01252908 0 0 Z " fill="#D12062" transform="translate(42.22265625,235.8671875)"/>
<path d="M0 0 C3.99499486 3.99499486 6.05218097 7.89622386 7.4375 13.4375 C7.4375 16.4075 7.4375 19.3775 7.4375 22.4375 C-7.9075 22.9325 -7.9075 22.9325 -23.5625 23.4375 C-21.29225204 31.92471962 -21.29225204 31.92471962 -15.5625 36.4375 C-9.13546132 39.00831547 -1.99529086 37.07122466 4.4375 35.4375 C4.4375 37.4175 4.4375 39.3975 4.4375 41.4375 C-2.26803043 44.64282047 -10.99167121 44.65454367 -18.14453125 42.75 C-23.66355612 40.21736908 -27.41398703 36.32288697 -29.67578125 30.640625 C-31.62534532 23.59814688 -31.74731058 15.00983549 -28.75 8.22265625 C-22.24839544 -1.55113745 -10.78591933 -4.73066637 0 0 Z M-22.4375 9.875 C-23.89749172 12.73410725 -23.89749172 12.73410725 -23.5625 17.4375 C-15.3125 17.4375 -7.0625 17.4375 1.4375 17.4375 C0.29166667 8.94791667 0.29166667 8.94791667 -3.1875 5.375 C-10.67819027 1.07478892 -17.13330705 2.97954917 -22.4375 9.875 Z " fill="#D12062" transform="translate(571.5625,253.5625)"/>
<path d="M0 0 C3.99499486 3.99499486 6.05218097 7.89622386 7.4375 13.4375 C7.4375 16.4075 7.4375 19.3775 7.4375 22.4375 C-7.9075 22.9325 -7.9075 22.9325 -23.5625 23.4375 C-21.29225204 31.92471962 -21.29225204 31.92471962 -15.5625 36.4375 C-9.13546132 39.00831547 -1.99529086 37.07122466 4.4375 35.4375 C4.4375 37.4175 4.4375 39.3975 4.4375 41.4375 C-2.26803043 44.64282047 -10.99167121 44.65454367 -18.14453125 42.75 C-23.66355612 40.21736908 -27.41398703 36.32288697 -29.67578125 30.640625 C-31.62534532 23.59814688 -31.74731058 15.00983549 -28.75 8.22265625 C-22.24839544 -1.55113745 -10.78591933 -4.73066637 0 0 Z M-22.4375 9.875 C-23.89749172 12.73410725 -23.89749172 12.73410725 -23.5625 17.4375 C-15.3125 17.4375 -7.0625 17.4375 1.4375 17.4375 C0.29166667 8.94791667 0.29166667 8.94791667 -3.1875 5.375 C-10.67819027 1.07478892 -17.13330705 2.97954917 -22.4375 9.875 Z " fill="#D12062" transform="translate(525.5625,253.5625)"/>
<path d="M0 0 C3.99499486 3.99499486 6.05218097 7.89622386 7.4375 13.4375 C7.4375 16.4075 7.4375 19.3775 7.4375 22.4375 C-7.9075 22.9325 -7.9075 22.9325 -23.5625 23.4375 C-21.29225204 31.92471962 -21.29225204 31.92471962 -15.5625 36.4375 C-9.13546132 39.00831547 -1.99529086 37.07122466 4.4375 35.4375 C4.4375 37.4175 4.4375 39.3975 4.4375 41.4375 C-2.26803043 44.64282047 -10.99167121 44.65454367 -18.14453125 42.75 C-23.66355612 40.21736908 -27.41398703 36.32288697 -29.67578125 30.640625 C-31.62534532 23.59814688 -31.74731058 15.00983549 -28.75 8.22265625 C-22.24839544 -1.55113745 -10.78591933 -4.73066637 0 0 Z M-22.4375 9.875 C-23.89749172 12.73410725 -23.89749172 12.73410725 -23.5625 17.4375 C-15.3125 17.4375 -7.0625 17.4375 1.4375 17.4375 C0.29166667 8.94791667 0.29166667 8.94791667 -3.1875 5.375 C-10.67819027 1.07478892 -17.13330705 2.97954917 -22.4375 9.875 Z " fill="#D12062" transform="translate(413.5625,253.5625)"/>
<path d="M0 0 C5.59989108 3.2426036 9.49383117 7.95414977 11.55078125 14.125 C12.74893661 30.68311422 12.74893661 30.68311422 7.55078125 37.125 C2.48808521 42.37720872 -1.94491666 44.42786776 -9.19921875 44.5625 C-15.62487647 44.46898731 -19.70709886 43.49589333 -24.44921875 39.125 C-30.06133927 33.21750471 -30.85164894 27.77062611 -30.81494141 19.79736328 C-30.6465234 13.47937049 -29.34145522 9.19948699 -25.0234375 4.609375 C-18.21337006 -1.51440658 -8.64753061 -3.08938892 0 0 Z M-20.69921875 9.375 C-24.32162576 15.06735387 -24.83809252 20.20951248 -23.9921875 26.7578125 C-23.0065263 31.05501168 -20.69696135 33.78483202 -17.76171875 36.9375 C-14.11669026 38.80927139 -10.52583425 39.23843626 -6.44921875 39.125 C-1.72040541 37.51898792 0.87883756 35.32376865 3.55078125 31.125 C5.92268307 25.364667 5.92689702 20.12446874 4.55078125 14.125 C2.5189194 10.2714689 0.466034 7.1355352 -3.44921875 5.125 C-10.55227334 3.37300374 -15.35132586 4.02710711 -20.69921875 9.375 Z " fill="#D12062" transform="translate(239.44921875,252.875)"/>
<path d="M0 0 C4.12992423 1.98924684 6.35822463 4.40958342 8.06713867 8.64453125 C9.12238026 12.44019741 9.22680946 15.64881725 9.1953125 19.5859375 C9.1924826 20.28772125 9.18965271 20.989505 9.18673706 21.71255493 C9.17562512 23.93355028 9.15053834 26.15412845 9.125 28.375 C9.11495854 29.88931705 9.10583473 31.40364049 9.09765625 32.91796875 C9.07571554 36.61211258 9.04124875 40.30601551 9 44 C7.02 44 5.04 44 3 44 C2.98541748 43.22922119 2.97083496 42.45844238 2.95581055 41.66430664 C2.88076834 38.12989827 2.78429353 34.59637693 2.6875 31.0625 C2.66494141 29.85013672 2.64238281 28.63777344 2.61914062 27.38867188 C2.46738471 17.30759726 2.46738471 17.30759726 -1 8 C-4.77180317 5.65559297 -7.51482408 5.78421796 -11.8125 6.40625 C-15.39670554 7.37910579 -16.89215208 8.99791357 -19 12 C-21.17601195 18.79321294 -21.42128637 25.40397523 -21.625 32.5 C-21.66367187 33.60859375 -21.70234375 34.7171875 -21.7421875 35.859375 C-21.83575243 38.57275797 -21.92149483 41.28614661 -22 44 C-23.98 44 -25.96 44 -28 44 C-28 29.81 -28 15.62 -28 1 C-26.02 1 -24.04 1 -22 1 C-21.67 2.65 -21.34 4.3 -21 6 C-20.05125 5.195625 -19.1025 4.39125 -18.125 3.5625 C-12.66655905 -1.06530863 -6.98488775 -0.87311097 0 0 Z " fill="#D12062" transform="translate(749,252)"/>
<path d="M0 0 C1.98 0 3.96 0 6 0 C6.02187378 1.26275757 6.02187378 1.26275757 6.04418945 2.55102539 C6.10559154 5.7029269 6.17980731 8.85420461 6.26245117 12.00561523 C6.29550934 13.36422543 6.32359961 14.72296666 6.34643555 16.08178711 C6.33531109 26.49872071 6.33531109 26.49872071 10 36 C13.75456567 38.50304378 15.54745934 38.45280074 20 38 C24.98238309 35.50880846 26.88908381 33.07665682 29 28 C29.49586098 24.72337471 29.49586098 24.72337471 29.51171875 21.2890625 C29.54716797 20.04511719 29.58261719 18.80117188 29.61914062 17.51953125 C29.64169922 16.23433594 29.66425781 14.94914062 29.6875 13.625 C29.72166016 12.31660156 29.75582031 11.00820313 29.79101562 9.66015625 C29.87327754 6.44018975 29.94250263 3.22048821 30 0 C31.98 0 33.96 0 36 0 C36.33 14.19 36.66 28.38 37 43 C35.02 43 33.04 43 31 43 C30.34 41.68 29.68 40.36 29 39 C28.236875 39.639375 27.47375 40.27875 26.6875 40.9375 C21.38142484 45.00960419 15.43442457 44.59578005 9 44 C4.24226049 41.91327214 2.53812941 39.72533782 0.60214233 34.96237183 C-0.39786604 31.7033612 -0.3690712 28.46786876 -0.29296875 25.09765625 C-0.28872391 24.3750914 -0.28447906 23.65252655 -0.28010559 22.9080658 C-0.26346418 20.62581307 -0.22584248 18.34448067 -0.1875 16.0625 C-0.17243423 14.50457015 -0.15874916 12.9466263 -0.14648438 11.38867188 C-0.11360882 7.59209943 -0.0619309 3.79620513 0 0 Z " fill="#D12062" transform="translate(670,253)"/>
<path d="M0 0 C1.98 0 3.96 0 6 0 C6.02187378 1.26275757 6.02187378 1.26275757 6.04418945 2.55102539 C6.10559154 5.7029269 6.17980731 8.85420461 6.26245117 12.00561523 C6.29550934 13.36422543 6.32359961 14.72296666 6.34643555 16.08178711 C6.33531109 26.49872071 6.33531109 26.49872071 10 36 C13.75456567 38.50304378 15.54745934 38.45280074 20 38 C24.98238309 35.50880846 26.88908381 33.07665682 29 28 C29.49586098 24.72337471 29.49586098 24.72337471 29.51171875 21.2890625 C29.54716797 20.04511719 29.58261719 18.80117188 29.61914062 17.51953125 C29.64169922 16.23433594 29.66425781 14.94914062 29.6875 13.625 C29.72166016 12.31660156 29.75582031 11.00820313 29.79101562 9.66015625 C29.87327754 6.44018975 29.94250263 3.22048821 30 0 C31.98 0 33.96 0 36 0 C36.33 14.19 36.66 28.38 37 43 C35.02 43 33.04 43 31 43 C30.34 41.68 29.68 40.36 29 39 C28.236875 39.639375 27.47375 40.27875 26.6875 40.9375 C21.38142484 45.00960419 15.43442457 44.59578005 9 44 C4.24226049 41.91327214 2.53812941 39.72533782 0.60214233 34.96237183 C-0.39786604 31.7033612 -0.3690712 28.46786876 -0.29296875 25.09765625 C-0.28872391 24.3750914 -0.28447906 23.65252655 -0.28010559 22.9080658 C-0.26346418 20.62581307 -0.22584248 18.34448067 -0.1875 16.0625 C-0.17243423 14.50457015 -0.15874916 12.9466263 -0.14648438 11.38867188 C-0.11360882 7.59209943 -0.0619309 3.79620513 0 0 Z " fill="#D12062" transform="translate(91,253)"/>
<path d="M0 0 C13.86 0 27.72 0 42 0 C42 1.98 42 3.96 42 6 C36.06 6 30.12 6 24 6 C24 23.49 24 40.98 24 59 C22.02 59 20.04 59 18 59 C18 41.51 18 24.02 18 6 C12.06 6 6.12 6 0 6 C0 4.02 0 2.04 0 0 Z " fill="#D22162" transform="translate(306,237)"/>
<path d="M0 0 C1.49080078 0.02707031 1.49080078 0.02707031 3.01171875 0.0546875 C3.77097656 0.07789063 4.53023438 0.10109375 5.3125 0.125 C4.9825 2.105 4.6525 4.085 4.3125 6.125 C3.219375 6.0425 2.12625 5.96 1 5.875 C-2.63334407 5.72413143 -2.63334407 5.72413143 -4.375 7.75 C-6.01320318 10.71436766 -6.19184136 13.00488104 -6.375 16.375 C-6.44074219 17.45265625 -6.50648438 18.5303125 -6.57421875 19.640625 C-6.61160156 20.46046875 -6.64898437 21.2803125 -6.6875 22.125 C-3.0575 22.125 0.5725 22.125 4.3125 22.125 C4.3125 23.775 4.3125 25.425 4.3125 27.125 C0.6825 27.125 -2.9475 27.125 -6.6875 27.125 C-6.6875 39.665 -6.6875 52.205 -6.6875 65.125 C-8.6675 65.125 -10.6475 65.125 -12.6875 65.125 C-12.6875 52.585 -12.6875 40.045 -12.6875 27.125 C-15.9875 27.125 -19.2875 27.125 -22.6875 27.125 C-22.6875 25.475 -22.6875 23.825 -22.6875 22.125 C-19.3875 22.125 -16.0875 22.125 -12.6875 22.125 C-12.73390625 21.18398437 -12.7803125 20.24296875 -12.828125 19.2734375 C-13.15974568 7.83252389 -13.15974568 7.83252389 -10.875 4.375 C-7.21451361 0.60992829 -5.1286338 -0.12067374 0 0 Z " fill="#D12062" transform="translate(279.6875,230.875)"/>
<path d="M0 0 C0 1.98 0 3.96 0 6 C-0.639375 5.835 -1.27875 5.67 -1.9375 5.5 C-7.37004297 4.61305421 -12.31249363 3.87499575 -17 7 C-18.08805146 9.3566226 -18.08805146 9.3566226 -18 12 C-14.42984505 16.36161098 -9.91039515 18.08021018 -4.875 20.33984375 C-1.65461293 22.19944226 -0.00288246 23.88021603 2 27 C2.94204234 30.73568512 2.85237798 34.40979287 1.01171875 37.84375 C-1.28319579 40.74258942 -3.57047322 42.70282148 -7 44 C-10.27734375 44.265625 -10.27734375 44.265625 -13.9375 44.25 C-15.14277344 44.25515625 -16.34804688 44.2603125 -17.58984375 44.265625 C-20.84123725 44.0123664 -23.07966971 43.39643877 -26 42 C-25.505 39.03 -25.505 39.03 -25 36 C-23.989375 36.33 -22.97875 36.66 -21.9375 37 C-17.07414689 38.36566885 -12.88743573 38.77959302 -8.125 36.8125 C-5.84882921 35.13912797 -5.84882921 35.13912797 -4.9375 32.5625 C-4.73842683 29.90414036 -4.73842683 29.90414036 -6.625 28.03125 C-9.29345363 25.74901992 -11.88202261 24.415417 -15.0625 22.9375 C-21.97173039 19.71774739 -21.97173039 19.71774739 -24 17 C-25.30271041 12.67137362 -25.28941327 8.91931273 -23.9375 4.625 C-18.5928851 -2.61609116 -8.06915088 -2.68971696 0 0 Z " fill="#D12062" transform="translate(485,253)"/>
<path d="M0 0 C0 1.98 0 3.96 0 6 C-0.639375 5.835 -1.27875 5.67 -1.9375 5.5 C-7.37004297 4.61305421 -12.31249363 3.87499575 -17 7 C-18.08805146 9.3566226 -18.08805146 9.3566226 -18 12 C-14.42984505 16.36161098 -9.91039515 18.08021018 -4.875 20.33984375 C-1.65461293 22.19944226 -0.00288246 23.88021603 2 27 C2.94204234 30.73568512 2.85237798 34.40979287 1.01171875 37.84375 C-1.28319579 40.74258942 -3.57047322 42.70282148 -7 44 C-10.27734375 44.265625 -10.27734375 44.265625 -13.9375 44.25 C-15.14277344 44.25515625 -16.34804688 44.2603125 -17.58984375 44.265625 C-20.84123725 44.0123664 -23.07966971 43.39643877 -26 42 C-25.505 39.03 -25.505 39.03 -25 36 C-23.989375 36.33 -22.97875 36.66 -21.9375 37 C-17.07414689 38.36566885 -12.88743573 38.77959302 -8.125 36.8125 C-5.84882921 35.13912797 -5.84882921 35.13912797 -4.9375 32.5625 C-4.73842683 29.90414036 -4.73842683 29.90414036 -6.625 28.03125 C-9.29345363 25.74901992 -11.88202261 24.415417 -15.0625 22.9375 C-21.97173039 19.71774739 -21.97173039 19.71774739 -24 17 C-25.30271041 12.67137362 -25.28941327 8.91931273 -23.9375 4.625 C-18.5928851 -2.61609116 -8.06915088 -2.68971696 0 0 Z " fill="#D12062" transform="translate(374,253)"/>
<path d="M0 0 C0 3.96 0 7.92 0 12 C3.96 12 7.92 12 12 12 C12 13.65 12 15.3 12 17 C8.04 17 4.08 17 0 17 C0.08719731 21.1884778 0.19413005 25.37488383 0.3125 29.5625 C0.33505859 30.74392578 0.35761719 31.92535156 0.38085938 33.14257812 C0.57592308 39.47328197 0.93626336 44.40642185 4 50 C6.64 50 9.28 50 12 50 C12.38218767 51.65614657 12.71395102 53.32457024 13 55 C11.27904777 56.72095223 9.02836086 56.17199761 6.6875 56.1875 C5.72199219 56.20167969 4.75648438 56.21585937 3.76171875 56.23046875 C0.79082247 55.98254388 -0.64830921 55.83020712 -3 54 C-5.53368987 49.02175282 -6.3659509 45.42218652 -6.29296875 39.75390625 C-6.28872391 39.09792953 -6.28447906 38.44195282 -6.28010559 37.76609802 C-6.26348779 35.69779089 -6.22587238 33.63050599 -6.1875 31.5625 C-6.17243111 30.14910275 -6.15874659 28.73569002 -6.14648438 27.32226562 C-6.11364104 23.88118565 -6.06198015 20.44069281 -6 17 C-8.97 17 -11.94 17 -15 17 C-15 15.35 -15 13.7 -15 12 C-12.03 12 -9.06 12 -6 12 C-6 8.7 -6 5.4 -6 2 C-2 0 -2 0 0 0 Z " fill="#D12062" transform="translate(441,241)"/>
<path d="M0 0 C1.98 0 3.96 0 6 0 C6 21.45 6 42.9 6 65 C4.02 65 2.04 65 0 65 C0 43.55 0 22.1 0 0 Z " fill="#D12062" transform="translate(70,231)"/>
</svg>
