<?xml version="1.0" encoding="UTF-8"?>
<svg version="1.1" xmlns="http://www.w3.org/2000/svg" width="1110" height="333">
<path d="M0 0 C4.26761548 5.34664325 4.72456351 12.40329608 5 19 C7.64 19.33 10.28 19.66 13 20 C13.11601563 19.27039063 13.23203125 18.54078125 13.3515625 17.7890625 C14.01103301 14.95254478 14.94375618 12.89919365 16.375 10.375 C17.00535156 9.24191406 17.00535156 9.24191406 17.6484375 8.0859375 C18.97450643 6.03934557 20.06271041 4.48398292 22 3 C23.9375 2.85546875 23.9375 2.85546875 26 3.1875 C26.680625 3.28417969 27.36125 3.38085938 28.0625 3.48046875 C30 4 30 4 33 6 C34.42786696 12.62938234 34.14911704 19.36065709 33 26 C36.14939633 27.20370117 36.14939633 27.20370117 40 27 C42.74246453 24.66339702 44.79022475 21.83127454 47 19 C51.01990812 15.17151608 51.01990812 15.17151608 54.5 14.5625 C57.88125652 15.15421989 59.49776188 15.5692544 62 18 C63.19065536 24.00891492 61.85150925 29.48990002 59.65625 35.08984375 C58.8375412 37.13624736 58.8375412 37.13624736 59 40 C61.24560478 41.2784124 61.24560478 41.2784124 64 42 C66.37310145 41.01341355 66.37310145 41.01341355 68.5 39.25 C72.2653414 36.41273571 75.64504107 34 80.5 34 C84.18240676 35.4729627 85.64612959 37.8390883 88 41 C85.70160755 47.38157011 83.18768997 52.64906281 79 58 C79.99 59.65 80.98 61.3 82 63 C82.52207031 62.79503906 83.04414062 62.59007812 83.58203125 62.37890625 C89.70748632 60.13683951 95.50382011 59.35212938 102 59 C103.65 61.64 105.3 64.28 107 67 C104.67798743 71.84593928 102.40863196 74.63361439 98.1875 78 C95.0047477 80.48161342 95.0047477 80.48161342 93.640625 84.0625 C93.90877531 86.21637057 93.90877531 86.21637057 95 89 C95.66 88.67 96.32 88.34 97 88 C99.65673808 87.90170936 102.2813485 87.86098337 104.9375 87.875 C105.66646484 87.87113281 106.39542969 87.86726563 107.14648438 87.86328125 C110.35857736 87.8691696 112.9321444 87.97738147 116 89 C117.31734439 91.89815767 117.96603303 94.32066057 118.125 97.5 C115.76401026 102.74664386 110.11991408 105.6598535 105 107.875 C103.515 108.431875 103.515 108.431875 102 109 C102 110.98 102 112.96 102 115 C102.86882812 115.18175781 103.73765625 115.36351562 104.6328125 115.55078125 C116.07908612 118.04745167 116.07908612 118.04745167 121 121 C121 124.63 121 128.26 121 132 C114.66282862 134.67767805 108.75133875 136.69328927 102 138 C101.67 139.98 101.34 141.96 101 144 C101.825 144.226875 102.65 144.45375 103.5 144.6875 C108.59091424 146.59659284 114.71933624 149.49173302 118 154 C117.85546875 156.48046875 117.85546875 156.48046875 117.1875 159.1875 C116.97480469 160.08855469 116.76210937 160.98960937 116.54296875 161.91796875 C116.36378906 162.60503906 116.18460938 163.29210937 116 164 C112.30486069 165.1668861 108.79299017 165.13310829 104.9375 165.125 C103.70902344 165.12757813 102.48054688 165.13015625 101.21484375 165.1328125 C98 165 98 165 95 164 C93.79629883 167.14939633 93.79629883 167.14939633 94 171 C96.33536228 173.74100833 99.16256416 175.80019019 102 178 C104.5625 180.5 104.5625 180.5 106 183 C105.85314612 187.2587625 105.37178287 189.4423257 103 193 C95.39904484 194.68068929 87.99936148 191.69391232 81 189 C79.66985089 191.7103633 79.66985089 191.7103633 79 195 C80.239477 197.8126361 80.239477 197.8126361 82.3125 200.375 C85.59718608 205.17168443 87.50648871 208.12473092 87 214 C85.21998202 216.59870221 83.85562837 217.36065779 81 219 C75.75294188 219.13808048 69.76124298 215.41877907 65.75 212.1875 C64.0569105 210.76938169 64.0569105 210.76938169 61.875 211.1875 C59.80828571 211.94660836 59.80828571 211.94660836 58 214 C58.433125 215.16015625 58.433125 215.16015625 58.875 216.34375 C61.06737005 222.49456598 62.5023392 227.46959035 62 234 C55.61174688 238.05408371 55.61174688 238.05408371 53.01171875 237.82421875 C50.56701101 236.82260063 49.01445483 235.52801827 47.0625 233.75 C46.37285156 233.12480469 45.68320312 232.49960937 44.97265625 231.85546875 C42.59375058 229.61788421 40.27350331 227.34455029 38 225 C35.525 225.99 35.525 225.99 33 227 C33.00523682 227.56509277 33.01047363 228.13018555 33.01586914 228.71240234 C33.03662422 231.2665903 33.0496554 233.82076053 33.0625 236.375 C33.07087891 237.26445312 33.07925781 238.15390625 33.08789062 239.0703125 C33.09111328 239.92109375 33.09433594 240.771875 33.09765625 241.6484375 C33.10289307 242.43395996 33.10812988 243.21948242 33.11352539 244.02880859 C33 246 33 246 32 248 C29.71484375 248.6328125 29.71484375 248.6328125 26.9375 249.125 C26.01839844 249.29257812 25.09929687 249.46015625 24.15234375 249.6328125 C23.44207031 249.75398437 22.73179687 249.87515625 22 250 C17.63756766 244.66329111 14.52451294 239.41523289 12 233 C9.69 233 7.38 233 5 233 C5.0825 233.9075 5.165 234.815 5.25 235.75 C5.28504102 241.42664471 3.05015435 246.77992828 1 252 C0 253 0 253 -2.28515625 253.09765625 C-3.65994141 253.08025391 -3.65994141 253.08025391 -5.0625 253.0625 C-5.98160156 253.05347656 -6.90070313 253.04445313 -7.84765625 253.03515625 C-8.55792969 253.02355469 -9.26820313 253.01195312 -10 253 C-10.6509259 251.75264433 -11.29551669 250.50198168 -11.9375 249.25 C-12.29714844 248.55390625 -12.65679688 247.8578125 -13.02734375 247.140625 C-15.19967404 242.35975352 -15.08628839 238.17730369 -15 233 C-17.31 233 -19.62 233 -22 233 C-22.45890625 233.89203125 -22.9178125 234.7840625 -23.390625 235.703125 C-24.01002747 236.88562062 -24.62984099 238.06790098 -25.25 239.25 C-25.85328125 240.41015625 -26.4565625 241.5703125 -27.078125 242.765625 C-28.85241899 245.75163196 -30.23057925 247.91503685 -33 250 C-35.2890625 250.09375 -35.2890625 250.09375 -37.625 249.5 C-38.40101563 249.3246875 -39.17703125 249.149375 -39.9765625 248.96875 C-42 248 -42 248 -43.265625 246.453125 C-44.38117154 242.72672486 -44.20832047 239.11478819 -44.125 235.25 C-44.11597656 234.45722656 -44.10695313 233.66445313 -44.09765625 232.84765625 C-44.07417012 230.89830719 -44.03830137 228.94911425 -44 227 C-45.65 226.34 -47.3 225.68 -49 225 C-49.68707031 225.77085937 -50.37414062 226.54171875 -51.08203125 227.3359375 C-51.99201401 228.34911418 -52.90217987 229.36212643 -53.8125 230.375 C-54.26431641 230.88289062 -54.71613281 231.39078125 -55.18164062 231.9140625 C-60.48763443 237.80100453 -60.48763443 237.80100453 -64.375 238.3125 C-67.8726827 237.8961092 -69.43947868 237.48736357 -72 235 C-73.72487372 227.37189469 -70.70797594 220.03590177 -68 213 C-70.12539947 211.7095789 -71.43125043 210.94518076 -73.9453125 211.1875 C-76.47356223 212.18726415 -78.59380549 213.52184281 -80.875 215 C-87.93794187 219.2833994 -87.93794187 219.2833994 -92 219 C-94.6294435 216.95487728 -96.43330916 215.26205062 -97.80859375 212.19921875 C-98.09534075 208.90455422 -96.77107125 206.89727858 -95.25 204 C-94.71890625 202.96875 -94.1878125 201.9375 -93.640625 200.875 C-92.23493718 198.41169944 -90.76581192 196.21258361 -89 194 C-89.99 192.68 -90.98 191.36 -92 190 C-92.59425781 190.20496094 -93.18851563 190.40992188 -93.80078125 190.62109375 C-100.20772565 192.70359978 -106.28237754 193.62963678 -113 194 C-116.95566502 187.88669951 -116.95566502 187.88669951 -117.125 184.5 C-114.37383763 178.38630585 -109.65867387 174.36825826 -104 171 C-104.66 169.02 -105.32 167.04 -106 165 C-107.26457031 165.01160156 -108.52914062 165.02320313 -109.83203125 165.03515625 C-111.49218602 165.04453566 -113.15234239 165.0536357 -114.8125 165.0625 C-115.64587891 165.07087891 -116.47925781 165.07925781 -117.33789062 165.08789062 C-118.14033203 165.09111328 -118.94277344 165.09433594 -119.76953125 165.09765625 C-120.50792236 165.10289307 -121.24631348 165.10812988 -122.00708008 165.11352539 C-124 165 -124 165 -127 164 C-127.99 159.05 -127.99 159.05 -129 154 C-123.58246742 149.53555185 -118.39895163 145.90861438 -112 143 C-112 140.69 -112 138.38 -112 136 C-113.27875 136.0825 -114.5575 136.165 -115.875 136.25 C-121.46592854 136.27662347 -126.03577419 134.45256394 -131 132 C-132 131 -132 131 -132.09765625 128.71484375 C-132.08605469 127.79832031 -132.07445312 126.88179688 -132.0625 125.9375 C-132.05347656 125.01839844 -132.04445313 124.09929687 -132.03515625 123.15234375 C-132.02355469 122.44207031 -132.01195312 121.73179687 -132 121 C-130.58521865 120.35004703 -129.16808513 119.70521278 -127.75 119.0625 C-126.56664062 118.52302734 -126.56664062 118.52302734 -125.359375 117.97265625 C-120.77926693 116.08449911 -116.96633838 115.90449349 -112 116 C-112 113.36 -112 110.72 -112 108 C-112.71800781 107.89558594 -113.43601562 107.79117188 -114.17578125 107.68359375 C-117.29644087 106.92824737 -119.46347753 105.74801466 -122.1875 104.0625 C-123.04730469 103.53785156 -123.90710938 103.01320313 -124.79296875 102.47265625 C-127 101 -127 101 -129 99 C-128.7578125 96.6171875 -128.7578125 96.6171875 -128.125 93.875 C-127.92132812 92.96492188 -127.71765625 92.05484375 -127.5078125 91.1171875 C-127.25644531 90.06917969 -127.25644531 90.06917969 -127 89 C-119.94887561 86.78788254 -113.35342179 86.79822928 -106 87 C-105.34 85.02 -104.68 83.04 -104 81 C-104.57363281 80.74734375 -105.14726563 80.4946875 -105.73828125 80.234375 C-110.76393286 77.49153232 -115.12309594 73.19226016 -117.25 67.875 C-116.89482893 63.79053274 -115.86378061 61.93362892 -113 59 C-105.9015614 57.73242168 -99.60932129 60.53252005 -93 63 C-91.42082334 61.13765716 -91.42082334 61.13765716 -90 59 C-90.76150747 55.5732164 -92.6520074 53.01023372 -94.5625 50.125 C-96.9137323 46.3799234 -98.25232813 43.54190632 -98 39 C-96.21976871 36.55622796 -94.34964798 34.96603198 -92 33 C-84.94417074 34.94290951 -79.1346545 38.04257152 -73 42 C-72.01 41.34 -71.02 40.68 -70 40 C-70.31182069 38.58318366 -70.62448737 37.16655349 -70.9375 35.75 C-71.11152344 34.96109375 -71.28554688 34.1721875 -71.46484375 33.359375 C-71.79680139 31.89585371 -72.15191949 30.43713284 -72.54296875 28.98828125 C-73.38622302 25.3197648 -73.61209875 21.7218418 -73 18 C-70.29959803 15.21776767 -68.57560981 15.04427768 -64.75 14.75 C-58.99355723 16.66881426 -53.74979463 21.50041073 -51 27 C-47.04 26.505 -47.04 26.505 -43 26 C-43.495 25.01 -43.495 25.01 -44 24 C-44.15071519 21.17409019 -44.23132601 18.38927538 -44.25 15.5625 C-44.270625 14.78583984 -44.29125 14.00917969 -44.3125 13.20898438 C-44.35211227 7.46025338 -44.35211227 7.46025338 -42.71777344 5.32397461 C-40.36475742 3.51038651 -37.99156109 2.94581639 -35.05859375 2.6875 C-31.66238776 3.20305309 -30.29627891 5.13618016 -28.3203125 7.80859375 C-26.16519376 11.38558077 -24.50029691 15.10805332 -23 19 C-20.69 19 -18.38 19 -16 19 C-15.89042969 18.21496094 -15.78085937 17.42992188 -15.66796875 16.62109375 C-14.76972902 10.66934268 -13.941714 5.2950852 -11 0 C-7.12131199 -1.292896 -3.78474048 -1.59477976 0 0 Z M-69 56 C-69.76441406 56.67289063 -70.52882813 57.34578125 -71.31640625 58.0390625 C-86.61139679 72.24345372 -98.11978559 94.67113455 -99.12426758 115.58764648 C-99.86502541 143.53233426 -93.97880461 167.70317345 -75 189 C-73.98679687 190.13695312 -73.98679687 190.13695312 -72.953125 191.296875 C-55.84076282 209.40849921 -32.63070126 218.46966467 -8.12890625 220.203125 C17.98835815 220.68015266 42.55970349 210.62609358 61.36572266 192.64599609 C79.23891395 174.64464329 88.67351261 151.01662628 89.3125 125.75 C88.86047516 99.87822527 79.08087346 77.30036813 61 59 C60.42894531 58.35675781 59.85789062 57.71351562 59.26953125 57.05078125 C44.58984795 40.86161895 21.36807596 32.49568725 0 31.125 C-25.56827408 29.99063676 -50.1314028 38.56871896 -69 56 Z " fill="#FEFEFE" transform="translate(976,25)"/>
<path d="M0 0 C8.42851005 7.11910351 15.21837124 14.53012816 20.58984375 24.1875 C21.05003906 24.99832031 21.51023437 25.80914062 21.984375 26.64453125 C31.61421771 44.65320992 34.01568301 67.85204696 28.90234375 87.625 C28.17871037 89.82856416 27.41102319 92.01839774 26.58984375 94.1875 C26.23921875 95.21230469 25.88859375 96.23710937 25.52734375 97.29296875 C19.0056109 114.79748089 5.05388496 130.4373802 -11.41015625 139.1875 C-12.90095703 139.98414063 -12.90095703 139.98414063 -14.421875 140.796875 C-33.81553091 150.43406687 -56.81347814 152.78499642 -77.70703125 146.578125 C-101.37640021 137.68962779 -118.72947222 122.72122264 -129.8359375 99.859375 C-139.45286782 77.42782537 -138.56607549 53.45121397 -129.78515625 31 C-120.35669938 10.33814238 -104.04522105 -3.80282382 -83.41015625 -12.8125 C-54.64904258 -23.21679358 -24.19419994 -18.62771484 0 0 Z M-42.41015625 -3.8125 C-42.53490418 4.85451108 -42.17851547 13.42036125 -41.53515625 22.0625 C-41.45652344 23.24585937 -41.37789062 24.42921875 -41.296875 25.6484375 C-41.21308594 26.793125 -41.12929688 27.9378125 -41.04296875 29.1171875 C-40.96965332 30.14054199 -40.89633789 31.16389648 -40.82080078 32.21826172 C-40.38164597 35.39364863 -39.51125383 38.18313258 -38.41015625 41.1875 C-33.894998 40.62866834 -30.4624462 39.45102677 -26.41796875 37.38671875 C-25.30035156 36.82146484 -24.18273437 36.25621094 -23.03125 35.67382812 C-21.87753906 35.08021484 -20.72382812 34.48660156 -19.53515625 33.875 C-18.38917969 33.29298828 -17.24320313 32.71097656 -16.0625 32.11132812 C-13.84378011 30.98409587 -11.62658791 29.85385026 -9.41113281 28.72021484 C-5.75531697 26.85304824 -2.0853906 25.01608711 1.58984375 23.1875 C1.58984375 19.13824538 0.21497803 18.34840705 -2.59765625 15.5 C-11.8016837 6.63160329 -26.73740455 -3.55966381 -40.13085938 -3.87695312 C-41.25911133 -3.84504883 -41.25911133 -3.84504883 -42.41015625 -3.8125 Z M-103.41015625 16.1875 C-104.19519531 16.85523437 -104.98023438 17.52296875 -105.7890625 18.2109375 C-107.66376456 20.02201517 -107.66376456 20.02201517 -107.2144165 22.18412781 C-105.79907485 25.70967329 -102.09587752 26.77908922 -98.83203125 28.33203125 C-98.06844299 28.7060759 -97.30485474 29.08012054 -96.51812744 29.46549988 C-94.90072322 30.25311249 -93.27981483 31.03356329 -91.65576172 31.80737305 C-89.17389753 32.99343317 -86.70796249 34.20864143 -84.2421875 35.42773438 C-82.66883925 36.18930103 -81.09464617 36.94912527 -79.51953125 37.70703125 C-78.78289246 38.07149857 -78.04625366 38.43596588 -77.28729248 38.81147766 C-74.07922898 40.31867244 -72.05429588 41.22195025 -68.46582031 41.0300293 C-66.230908 40.37734551 -66.230908 40.37734551 -65.41015625 38.1875 C-65.18700591 36.33427032 -65.0176037 34.47444231 -64.875 32.61328125 C-64.78782715 31.47673096 -64.7006543 30.34018066 -64.61083984 29.16918945 C-64.52398926 27.95835693 -64.43713867 26.74752441 -64.34765625 25.5 C-64.25822754 24.27949951 -64.16879883 23.05899902 -64.07666016 21.80151367 C-63.47983245 13.24186748 -63.15153807 4.76500308 -63.41015625 -3.8125 C-78.16167294 -3.8125 -92.99384171 6.90229255 -103.41015625 16.1875 Z M-119.41015625 41.1875 C-119.89321525 42.58199109 -120.37141142 43.97816707 -120.84765625 45.375 C-121.11449219 46.15230469 -121.38132812 46.92960937 -121.65625 47.73046875 C-125.66979295 60.81087558 -125.61645975 79.77489301 -119.41015625 92.1875 C-115.85881589 90.87745699 -112.85660197 89.31642589 -109.71484375 87.2109375 C-108.83852295 86.62586426 -107.96220215 86.04079102 -107.05932617 85.43798828 C-106.1438501 84.81907715 -105.22837402 84.20016602 -104.28515625 83.5625 C-103.34969971 82.93456543 -102.41424316 82.30663086 -101.45043945 81.65966797 C-94.99709525 77.30959027 -88.62499184 72.87409733 -82.41015625 68.1875 C-82.75993913 65.55552721 -83.17295169 64.40864104 -85.140625 62.57421875 C-86.35685547 61.73310547 -86.35685547 61.73310547 -87.59765625 60.875 C-89.05751953 59.85986328 -89.05751953 59.85986328 -90.546875 58.82421875 C-91.13130371 58.42638184 -91.71573242 58.02854492 -92.31787109 57.61865234 C-94.8678506 55.87443065 -97.39768934 54.10224978 -99.9296875 52.33203125 C-101.92245443 50.94947864 -103.9159519 49.56797845 -105.91015625 48.1875 C-106.89008545 47.50389404 -107.87001465 46.82028809 -108.87963867 46.1159668 C-109.80752197 45.47957275 -110.73540527 44.84317871 -111.69140625 44.1875 C-112.52736328 43.61 -113.36332031 43.0325 -114.22460938 42.4375 C-116.42455566 40.93926347 -116.42455566 40.93926347 -119.41015625 41.1875 Z M5.7734375 44.1875 C4.38644653 45.14209106 4.38644653 45.14209106 2.97143555 46.1159668 C1.99988525 46.79957275 1.02833496 47.48317871 0.02734375 48.1875 C-0.96031982 48.87432861 -1.9479834 49.56115723 -2.96557617 50.26879883 C-4.91304578 51.62616507 -6.85755589 52.98778903 -8.79882812 54.35400391 C-10.94503844 55.86092607 -13.1016159 57.34886511 -15.26953125 58.82421875 C-16.2440625 59.50097656 -17.21859375 60.17773438 -18.22265625 60.875 C-19.03347656 61.43574219 -19.84429688 61.99648437 -20.6796875 62.57421875 C-22.68441312 64.44318417 -22.86934518 65.56633533 -23.41015625 68.1875 C-22.81178955 68.59476318 -22.21342285 69.00202637 -21.59692383 69.42163086 C-19.81283406 70.63620998 -18.02900228 71.85116813 -16.24536133 73.06640625 C-14.22650515 74.4413352 -12.20680731 75.81502909 -10.1862793 77.1875 C-5.81571963 80.16067944 -1.45075559 83.13482107 2.83984375 86.22265625 C3.43385986 86.64748291 4.02787598 87.07230957 4.63989258 87.51000977 C6.17440629 88.61347773 7.70079401 89.72822125 9.2265625 90.84375 C10.39638672 91.50890625 10.39638672 91.50890625 11.58984375 92.1875 C12.57984375 91.8575 13.56984375 91.5275 14.58984375 91.1875 C20.48331723 75.44638494 19.86524849 57.01371421 14.58984375 41.1875 C10.16315809 41.1875 9.28117154 41.74899378 5.7734375 44.1875 Z M-67.32421875 48.62109375 C-72.32265256 54.47542376 -75.95468718 60.29633836 -75.34765625 68.25 C-74.12445765 74.65905102 -71.70235365 79.49197356 -66.53515625 83.5625 C-60.92591422 87.37098905 -55.2484173 89.35736124 -48.41015625 88.1875 C-41.15404269 85.60631762 -35.95746943 82.2614165 -32.44921875 75.2734375 C-29.96901701 69.38011411 -29.57746284 64.17325979 -31.66015625 58.0625 C-33.61693276 53.29977982 -36.10183851 50.05971183 -40.41015625 47.1875 C-42.99395802 46.93719023 -42.99395802 46.93719023 -45.41015625 47.1875 C-46.6402297 48.22382739 -46.6402297 48.22382739 -46.78515625 50.4375 C-46.25919647 54.2945384 -44.17885208 55.55064683 -41.41015625 58.1875 C-39.00769204 62.11880508 -39.23781059 65.60953788 -39.87109375 70.03515625 C-40.66915423 73.22161511 -42.00582778 74.98353224 -44.41015625 77.1875 C-48.38406478 79.4429616 -51.89767908 79.65430798 -56.41015625 79.1875 C-59.69145191 77.90149726 -62.62195732 76.41740772 -64.57421875 73.37109375 C-66.23819777 69.02453172 -66.24716914 64.73302983 -65.41015625 60.1875 C-63.45623665 56.79615826 -61.12695296 53.99439456 -58.41015625 51.1875 C-59.07015625 49.8675 -59.73015625 48.5475 -60.41015625 47.1875 C-63.3819305 46.90666223 -64.88916367 46.79728719 -67.32421875 48.62109375 Z M-38.41015625 91.1875 C-40.80643824 97.98367791 -41.07864312 104.84920819 -41.53515625 112 C-41.62152344 113.22009766 -41.70789063 114.44019531 -41.796875 115.69726562 C-42.26006032 122.53843928 -42.5350558 129.33091121 -42.41015625 136.1875 C-26.0455566 135.89527501 -11.9141082 125.34387254 -0.125 114.984375 C1.82280726 113.19894972 1.82280726 113.19894972 2.58984375 110.1875 C-0.28072076 107.90119496 -3.13168905 106.23352869 -6.4453125 104.6640625 C-7.90807617 103.96796875 -7.90807617 103.96796875 -9.40039062 103.2578125 C-10.41423828 102.78085938 -11.42808594 102.30390625 -12.47265625 101.8125 C-13.45943359 101.34328125 -14.44621094 100.8740625 -15.46289062 100.390625 C-18.44040851 98.97888764 -21.42453012 97.58199575 -24.41015625 96.1875 C-25.43093262 95.7037793 -26.45170898 95.22005859 -27.50341797 94.72167969 C-28.48197754 94.26438477 -29.46053711 93.80708984 -30.46875 93.3359375 C-31.34716553 92.92263184 -32.22558105 92.50932617 -33.13061523 92.08349609 C-35.46728166 91.00459209 -35.46728166 91.00459209 -38.41015625 91.1875 Z M-68.41015625 91.1875 C-70.72301829 91.80955327 -70.72301829 91.80955327 -73.171875 93.1171875 C-74.11925537 93.57955811 -75.06663574 94.04192871 -76.04272461 94.51831055 C-77.05085205 95.02789307 -78.05897949 95.53747559 -79.09765625 96.0625 C-80.12318604 96.5675708 -81.14871582 97.0726416 -82.20532227 97.59301758 C-85.28041468 99.11123491 -88.34579783 100.64775572 -91.41015625 102.1875 C-93.1023862 103.02830724 -94.79505258 103.86823705 -96.48828125 104.70703125 C-100.13681406 106.51846044 -103.776291 108.34683386 -107.41015625 110.1875 C-102.31167127 121.6273842 -89.20957977 128.34796046 -78.265625 133.1171875 C-73.44751543 134.9231547 -68.49239452 136.35462483 -63.41015625 137.1875 C-62.20495258 136.21089574 -62.20495258 136.21089574 -62.35668945 134.38769531 C-62.39109131 133.60491211 -62.42549316 132.82212891 -62.4609375 132.015625 C-62.49880371 131.13293945 -62.53666992 130.25025391 -62.57568359 129.34082031 C-62.62418457 128.38272461 -62.67268555 127.42462891 -62.72265625 126.4375 C-62.77115723 125.46135742 -62.8196582 124.48521484 -62.86962891 123.47949219 C-63.24268499 116.45792302 -63.69878641 109.44452768 -64.28515625 102.4375 C-64.38437378 101.09026855 -64.38437378 101.09026855 -64.4855957 99.71582031 C-64.59907349 98.47203613 -64.59907349 98.47203613 -64.71484375 97.203125 C-64.77655762 96.47383789 -64.83827148 95.74455078 -64.90185547 94.99316406 C-65.31285716 92.7824789 -65.31285716 92.7824789 -68.41015625 91.1875 Z " fill="#FEFEFE" transform="translate(1023.41015625,84.8125)"/>
<path d="M0 0 C1.39495977 -0.01154203 2.78987462 -0.03202935 4.18457031 -0.06152344 C14.44375077 -0.27703726 24.98526717 0.17898807 33.5949707 6.48266602 C41.23116973 14.86386007 42.73239601 23.24188845 42.4934082 34.23657227 C42.05894946 41.9939947 38.63568263 47.23891717 32.9699707 52.35766602 C31.05412508 53.91451953 29.3636103 55.19209622 27.1574707 56.29516602 C28.83015671 61.84654421 30.89189785 67.08442837 33.3293457 72.34204102 C33.61741089 72.96574585 33.90547607 73.58945068 34.20227051 74.23205566 C35.40717753 76.83300658 36.61689336 79.43142181 37.84350586 82.0222168 C38.74683437 83.93590326 39.63293812 85.8568233 40.5168457 87.77954102 C41.04761719 88.91101563 41.57838867 90.04249023 42.12524414 91.20825195 C43.1574707 94.29516602 43.1574707 94.29516602 42.1574707 99.29516602 C36.5474707 99.29516602 30.9374707 99.29516602 25.1574707 99.29516602 C20.63467408 90.41403809 16.26446727 81.5014752 12.1574707 72.42016602 C11.75987549 71.54650391 11.36228027 70.6728418 10.95263672 69.77270508 C10.58710693 68.95769531 10.22157715 68.14268555 9.8449707 67.30297852 C9.51883789 66.57739746 9.19270508 65.85181641 8.85668945 65.10424805 C8.1574707 63.29516602 8.1574707 63.29516602 8.1574707 61.29516602 C2.2174707 61.29516602 -3.7225293 61.29516602 -9.8425293 61.29516602 C-9.83092773 63.95450195 -9.81932617 66.61383789 -9.80737305 69.35375977 C-9.79958278 71.91861858 -9.79350585 74.48347609 -9.78759766 77.04833984 C-9.78255711 78.83610622 -9.77572476 80.62386846 -9.76708984 82.41162109 C-9.75501199 84.9756777 -9.74929835 87.53967999 -9.74487305 90.10375977 C-9.73971176 90.90792831 -9.73455048 91.71209686 -9.72923279 92.54063416 C-9.72903715 94.45918316 -9.78050947 96.3776197 -9.8425293 98.29516602 C-11.66368932 100.11632604 -14.14924694 99.42751681 -16.5690918 99.43188477 C-17.69444336 99.42608398 -17.69444336 99.42608398 -18.8425293 99.42016602 C-19.96788086 99.4259668 -19.96788086 99.4259668 -21.1159668 99.43188477 C-26.71591876 99.42177655 -26.71591876 99.42177655 -27.8425293 98.29516602 C-27.95378372 95.35353578 -27.99993099 92.43516725 -28.00366211 89.49267578 C-28.00862701 88.56915314 -28.01359192 87.64563049 -28.01870728 86.69412231 C-28.03336813 83.62493152 -28.04013699 80.55579239 -28.0456543 77.48657227 C-28.051402 75.36286924 -28.05715977 73.23916623 -28.06292725 71.11546326 C-28.07344806 66.65737668 -28.07928382 62.19930819 -28.08276367 57.74121094 C-28.08825425 52.01637084 -28.11228982 46.2917679 -28.14073563 40.5670023 C-28.15931723 36.1790852 -28.16456518 31.79122576 -28.16609955 27.40327263 C-28.16913616 25.29205972 -28.17719834 23.18084807 -28.19028473 21.06967354 C-28.20725379 18.12194658 -28.2054876 15.17480614 -28.19897461 12.22705078 C-28.20818939 11.34749222 -28.21740417 10.46793365 -28.22689819 9.5617218 C-28.21002197 7.13551331 -28.21002197 7.13551331 -27.8425293 3.29516602 C-20.43041923 -1.6462407 -8.67868091 0.04975493 0 0 Z M-9.8425293 17.29516602 C-9.8425293 26.53516602 -9.8425293 35.77516602 -9.8425293 45.29516602 C-6.3775293 45.37766602 -2.9125293 45.46016602 0.6574707 45.54516602 C1.73319336 45.58158203 2.80891602 45.61799805 3.91723633 45.65551758 C11.22547734 45.73911738 16.42920422 44.54236585 22.0949707 39.60766602 C24.12078855 35.19853306 24.84108792 30.76473321 23.5324707 26.03735352 C21.91256691 22.37907078 20.60655384 20.59136979 17.2199707 18.35766602 C8.08457091 15.1882416 -0.2009934 16.33101243 -9.8425293 17.29516602 Z " fill="#FEFEFE" transform="translate(333.842529296875,91.704833984375)"/>
<path d="M0 0 C5.18054702 5.14478554 6.21544484 11.42792422 6.40307617 18.53735352 C6.40260655 20.85959193 6.38597763 23.1818682 6.35546875 25.50390625 C6.35122391 26.73415024 6.34697906 27.96439423 6.34260559 29.23191833 C6.32590766 33.13400816 6.28827075 37.03556812 6.25 40.9375 C6.23323803 43.59439348 6.22125539 46.25128198 6.20898438 48.90820312 C6.17603318 55.39731405 6.12592238 61.88611915 6.0625 68.375 C2.34863281 70.42822266 2.34863281 70.42822266 -0.2265625 69.94921875 C-0.99742187 69.65660156 -1.76828125 69.36398438 -2.5625 69.0625 C-3.72652344 68.63517578 -3.72652344 68.63517578 -4.9140625 68.19921875 C-6.9375 67.375 -6.9375 67.375 -8.9375 66.375 C-11.40173976 66.96653644 -13.81526214 67.61750532 -16.25 68.3125 C-24.85107552 70.59267692 -33.97237559 72.50876793 -42.4375 68.75 C-47.19451985 65.88976655 -50.04384016 62.46020628 -52.25 57.3125 C-53.66870154 49.18720936 -54.48201941 40.55827261 -49.9375 33.375 C-43.53273265 26.42032838 -36.59912967 25.11793887 -27.5 24.25 C-26.67951172 24.16363281 -25.85902344 24.07726562 -25.01367188 23.98828125 C-20.29579694 23.51385807 -15.67834167 23.28567055 -10.9375 23.375 C-11.5975 20.075 -12.2575 16.775 -12.9375 13.375 C-22.32700725 11.02762319 -32.53729675 12.3795093 -42.07421875 13.3515625 C-44.9375 13.375 -44.9375 13.375 -47.9375 11.375 C-48.23046875 8.3359375 -48.23046875 8.3359375 -48.125 4.75 C-48.08439453 2.96722656 -48.08439453 2.96722656 -48.04296875 1.1484375 C-47.99076172 -0.22441406 -47.99076172 -0.22441406 -47.9375 -1.625 C-43.02399848 -3.48712319 -38.37242332 -4.22248947 -33.1875 -4.75 C-32.38763672 -4.8327417 -31.58777344 -4.9154834 -30.76367188 -5.00073242 C-19.90627283 -6.07346285 -9.21958373 -6.97279442 0 0 Z M-33.5859375 40.671875 C-35.74884148 43.39738406 -35.41422843 45.84904968 -35.27734375 49.2109375 C-35.04516568 51.54879799 -35.04516568 51.54879799 -33.4375 53.9375 C-27.90886875 57.11646297 -22.28913201 55.31720647 -16.4375 53.875 C-14.6225 53.38 -12.8075 52.885 -10.9375 52.375 C-10.9375 47.425 -10.9375 42.475 -10.9375 37.375 C-22.83459887 36.49744184 -22.83459887 36.49744184 -33.5859375 40.671875 Z " fill="#FEFEFE" transform="translate(562.9375,122.625)"/>
<path d="M0 0 C5.26831998 5.51335811 7.26079819 10.3204073 7.22705078 17.91357422 C7.22689972 19.05430389 7.22674866 20.19503357 7.22659302 21.37033081 C7.21627045 22.58616852 7.20594788 23.80200623 7.1953125 25.0546875 C7.1924826 26.31137238 7.18965271 27.56805725 7.18673706 28.86282349 C7.17746123 32.18700864 7.15952381 35.51091424 7.1373291 38.83502197 C7.11678812 42.23374021 7.10771778 45.63248744 7.09765625 49.03125 C7.07563379 55.68757667 7.04218433 62.34377221 7 69 C3.28613281 71.05322266 3.28613281 71.05322266 0.7109375 70.57421875 C-0.05992187 70.28160156 -0.83078125 69.98898438 -1.625 69.6875 C-2.78902344 69.26017578 -2.78902344 69.26017578 -3.9765625 68.82421875 C-6 68 -6 68 -8 67 C-10.28633867 67.58859171 -12.55486119 68.24695548 -14.8125 68.9375 C-24.63522776 71.73535984 -34.69884926 72.98275933 -44 68 C-49.27869003 63.07322263 -51.54106715 57.41329945 -52.28515625 50.2578125 C-52.49829244 43.56718934 -52.02477684 37.42960809 -47.453125 32.24609375 C-41.28473019 26.58263391 -34.64177998 25.64565845 -26.5625 24.875 C-25.74201172 24.78863281 -24.92152344 24.70226562 -24.07617188 24.61328125 C-19.35829694 24.13885807 -14.74084167 23.91067055 -10 24 C-10.66 20.7 -11.32 17.4 -12 14 C-21.38950725 11.65262319 -31.59979675 13.0045093 -41.13671875 13.9765625 C-44 14 -44 14 -47 12 C-47.29296875 8.9609375 -47.29296875 8.9609375 -47.1875 5.375 C-47.14689453 3.59222656 -47.14689453 3.59222656 -47.10546875 1.7734375 C-47.05326172 0.40058594 -47.05326172 0.40058594 -47 -1 C-42.08627171 -2.86220913 -37.43499212 -3.59682851 -32.25 -4.125 C-31.45158691 -4.2084668 -30.65317383 -4.29193359 -29.83056641 -4.37792969 C-8.58311322 -6.49532893 -8.58311322 -6.49532893 0 0 Z M-32.6484375 41.296875 C-34.81134148 44.02238406 -34.47672843 46.47404968 -34.33984375 49.8359375 C-34.10766568 52.17379799 -34.10766568 52.17379799 -32.5 54.5625 C-26.97136875 57.74146297 -21.35163201 55.94220647 -15.5 54.5 C-13.685 54.005 -11.87 53.51 -10 53 C-10 48.05 -10 43.1 -10 38 C-21.89709887 37.12244184 -21.89709887 37.12244184 -32.6484375 41.296875 Z " fill="#FEFEFE" transform="translate(685,122)"/>
<path d="M0 0 C7.00269277 6.36752789 9.59762495 14.67606043 10.11010742 24.00415039 C10.84926921 51.69620741 10.84926921 51.69620741 1.24609375 61.85546875 C-8.09696638 69.49979067 -19.43571361 70.02716715 -31 69 C-38.84322966 67.31930793 -45.73879685 63.9430815 -50.2421875 57.1171875 C-54.74371912 48.73842427 -55.34164921 40.46440537 -55.3125 31.125 C-55.32861328 30.10019531 -55.34472656 29.07539063 -55.36132812 28.01953125 C-55.36761505 18.12390347 -53.43990553 8.79384794 -47 1 C-34.92880735 -10.11002041 -12.62807162 -10.23824301 0 0 Z M-33 12 C-38.70813679 18.67386387 -38.47188279 27.66754337 -38 36 C-37.29768581 42.8124476 -36.02114343 47.2237904 -31 52 C-25.17880038 53.94039987 -19.10435286 53.93944324 -13.5 51.4375 C-9.15887425 47.20490239 -7.8562795 42.88206046 -7.6015625 36.96875 C-7.59367109 35.14583367 -7.60179622 33.32278572 -7.625 31.5 C-7.61339844 30.58863281 -7.60179687 29.67726563 -7.58984375 28.73828125 C-7.6144217 23.06077424 -8.26919117 19.00430517 -11 14 C-14.6088236 10.57161758 -17.24854969 9.13472695 -22.25 8.75 C-26.59445473 9.03963032 -29.23688551 9.79893304 -33 12 Z " fill="#FEFEFE" transform="translate(441,124)"/>
<path d="M0 0 C0.80219971 0.12600586 1.60439941 0.25201172 2.4309082 0.38183594 C8.25346116 1.37846116 8.25346116 1.37846116 10.5 3.625 C10.6171875 6.375 10.6171875 6.375 10.375 9.625 C10.31054688 10.6975 10.24609375 11.77 10.1796875 12.875 C9.5 15.625 9.5 15.625 7.89453125 17.0546875 C4.49669865 17.86395921 1.74960123 17.3175947 -1.6875 16.75 C-13.54862769 14.64226635 -13.54862769 14.64226635 -24.5 18.625 C-28.67325618 24.38121542 -28.71052557 29.47848909 -28.75 36.3125 C-28.770625 37.18583984 -28.79125 38.05917969 -28.8125 38.95898438 C-28.84788008 44.88072444 -28.02392036 49.24506449 -25.5 54.625 C-20.2342833 59.05928775 -13.00963772 57.98392739 -6.5 57.625 C-4.16298962 57.31850684 -1.82854865 56.99026253 0.5 56.625 C3.19147273 56.49845698 5.80150712 56.53194852 8.5 56.625 C10.29849929 58.42349929 9.92218132 61.12577848 10.125 63.5625 C10.22039063 64.64402344 10.31578125 65.72554688 10.4140625 66.83984375 C10.5 69.625 10.5 69.625 9.5 71.625 C7.12715123 72.29074135 4.85482441 72.8106399 2.4375 73.25 C1.36798096 73.44456787 1.36798096 73.44456787 0.27685547 73.64306641 C-12.39228615 75.76338995 -25.67755112 76.35496188 -36.8125 69.0625 C-43.00294128 63.9975935 -45.94969528 56.39308652 -47.21875 48.64453125 C-48.39709596 35.99367814 -49.31139083 20.85910568 -41.625 10.0625 C-30.51272745 -2.93367134 -15.57332912 -2.50403751 0 0 Z " fill="#FEFEFE" transform="translate(750.5,118.375)"/>
<path d="M0 0 C1 1 1 1 1.09765625 4.37890625 C1.09098369 5.77347077 1.07902532 7.16801743 1.0625 8.5625 C1.05798828 9.27341797 1.05347656 9.98433594 1.04882812 10.71679688 C1.03700864 12.47790013 1.01907263 14.23896036 1 16 C2.91425781 15.96519531 2.91425781 15.96519531 4.8671875 15.9296875 C6.5364525 15.91093171 8.2057238 15.89273131 9.875 15.875 C10.71675781 15.85824219 11.55851562 15.84148437 12.42578125 15.82421875 C13.23144531 15.81777344 14.03710938 15.81132813 14.8671875 15.8046875 C15.61081543 15.79421387 16.35444336 15.78374023 17.12060547 15.77294922 C19 16 19 16 21 18 C21.265625 20.75 21.265625 20.75 21.25 24 C21.25773437 25.60875 21.25773437 25.60875 21.265625 27.25 C21 30 21 30 19 32 C17.12060547 32.22705078 17.12060547 32.22705078 14.8671875 32.1953125 C14.06152344 32.18886719 13.25585938 32.18242187 12.42578125 32.17578125 C11.16314453 32.15064453 11.16314453 32.15064453 9.875 32.125 C8.60076172 32.11146484 8.60076172 32.11146484 7.30078125 32.09765625 C5.20040116 32.07405647 3.10016556 32.03818483 1 32 C1.09378695 36.89331525 1.19993625 41.7861504 1.31738281 46.67895508 C1.35558696 48.34229248 1.39045463 50.00571008 1.421875 51.66918945 C1.46771234 54.0649068 1.52567467 56.46007609 1.5859375 58.85546875 C1.59748871 59.5952446 1.60903992 60.33502045 1.62094116 61.09721375 C1.73581135 65.14605316 2.21350836 68.34866183 4 72 C9.07071901 72.71167986 13.88208358 73.10662326 19 73 C20.84586777 76.14969501 21.27170838 78.48884674 21.25 82.125 C21.25773437 83.42824219 21.25773437 83.42824219 21.265625 84.7578125 C21 87 21 87 19 89 C11.40753222 91.18336272 -0.39462534 91.68912414 -7.8125 88.5 C-12.37013228 85.62848729 -14.21031188 80.99937906 -15.53710938 75.95996094 C-16.1858988 71.8112674 -16.12249872 67.73538469 -16.09765625 63.54296875 C-16.0962413 62.64000565 -16.09482635 61.73704254 -16.09336853 60.80671692 C-16.08778823 57.93361037 -16.07523934 55.06058284 -16.0625 52.1875 C-16.05748245 50.23502717 -16.05291999 48.28255311 -16.04882812 46.33007812 C-16.03782525 41.55335515 -16.02057418 36.77669096 -16 32 C-17.299375 32.020625 -18.59875 32.04125 -19.9375 32.0625 C-21.29165633 32.08399454 -22.64756083 32.07148199 -24 32 C-25 31 -25 31 -25.1328125 27.875 C-25.13023437 26.59625 -25.12765625 25.3175 -25.125 24 C-25.12757813 22.72125 -25.13015625 21.4425 -25.1328125 20.125 C-25 17 -25 17 -24 16 C-21.32941149 15.85884839 -18.67567762 15.95752893 -16 16 C-16 11.71 -16 7.42 -16 3 C-5.12824675 -0.52597403 -5.12824675 -0.52597403 0 0 Z " fill="#FEFEFE" transform="translate(482,103)"/>
<path d="M0 0 C1 1 1 1 1.09765625 4.37890625 C1.09098369 5.77347077 1.07902532 7.16801743 1.0625 8.5625 C1.05798828 9.27341797 1.05347656 9.98433594 1.04882812 10.71679688 C1.03700864 12.47790013 1.01907263 14.23896036 1 16 C2.91425781 15.96519531 2.91425781 15.96519531 4.8671875 15.9296875 C6.5364525 15.91093171 8.2057238 15.89273131 9.875 15.875 C10.71675781 15.85824219 11.55851563 15.84148437 12.42578125 15.82421875 C13.23144531 15.81777344 14.03710938 15.81132813 14.8671875 15.8046875 C15.61081543 15.79421387 16.35444336 15.78374023 17.12060547 15.77294922 C19 16 19 16 21 18 C21.265625 20.75 21.265625 20.75 21.25 24 C21.25773438 25.60875 21.25773438 25.60875 21.265625 27.25 C21 30 21 30 19 32 C17.12060547 32.22705078 17.12060547 32.22705078 14.8671875 32.1953125 C14.06152344 32.18886719 13.25585938 32.18242187 12.42578125 32.17578125 C11.16314453 32.15064453 11.16314453 32.15064453 9.875 32.125 C8.60076172 32.11146484 8.60076172 32.11146484 7.30078125 32.09765625 C5.20040116 32.07405647 3.10016556 32.03818483 1 32 C1.09393403 36.7325952 1.20011426 41.46470274 1.31738281 46.19677734 C1.35553759 47.80477482 1.39041348 49.41285373 1.421875 51.02099609 C1.4678206 53.33981316 1.52576381 55.6580762 1.5859375 57.9765625 C1.59748871 58.68930328 1.60903992 59.40204407 1.62094116 60.13638306 C1.74647479 64.43411249 2.43884039 67.99576256 4 72 C8.05305425 72.56884972 11.77501627 73.00362877 15.875 72.9375 C19 73 19 73 21 75 C21.1953125 78.0390625 21.1953125 78.0390625 21.125 81.625 C21.10695313 82.81351562 21.08890625 84.00203125 21.0703125 85.2265625 C21.04710937 86.14179688 21.02390625 87.05703125 21 88 C15.93079994 89.65673075 11.35096957 90.33812725 6 90.3125 C4.99066406 90.33666992 4.99066406 90.33666992 3.9609375 90.36132812 C-2.51036927 90.36757456 -7.05146474 88.81863291 -11.8125 84.375 C-16.48370087 78.16331442 -16.28805681 69.81484253 -16.1953125 62.37109375 C-16.1924826 61.49598648 -16.18965271 60.62087921 -16.18673706 59.71925354 C-16.17565394 56.95852245 -16.15057257 54.19813095 -16.125 51.4375 C-16.11495482 49.55143702 -16.10583168 47.66536889 -16.09765625 45.77929688 C-16.07575368 41.18606957 -16.04130764 36.59309211 -16 32 C-17.11375 32.020625 -18.2275 32.04125 -19.375 32.0625 C-23 32 -23 32 -25 31 C-25.02685412 28.68756208 -25.04632841 26.3750373 -25.0625 24.0625 C-25.07410156 22.77472656 -25.08570313 21.48695312 -25.09765625 20.16015625 C-25 17 -25 17 -24 16 C-21.32941149 15.85884839 -18.67567762 15.95752893 -16 16 C-16.02320313 15.15695313 -16.04640625 14.31390625 -16.0703125 13.4453125 C-16.08835937 12.34960938 -16.10640625 11.25390625 -16.125 10.125 C-16.14820313 9.03445312 -16.17140625 7.94390625 -16.1953125 6.8203125 C-16 4 -16 4 -14 2 C-9.2077028 0.56231084 -5.04084802 -0.36884254 0 0 Z " fill="#FEFEFE" transform="translate(794,103)"/>
<path d="M0 0 C0.70253906 0.00386719 1.40507813 0.00773437 2.12890625 0.01171875 C2.83144531 0.00785156 3.53398438 0.00398438 4.2578125 0 C9.50229247 0.01010497 9.50229247 0.01010497 10.62890625 1.13671875 C10.66954457 2.8028899 10.67162725 4.4705997 10.62890625 6.13671875 C11.39074219 5.70359375 12.15257812 5.27046875 12.9375 4.82421875 C19.54257351 1.26193191 24.10934561 -0.72618165 31.62890625 0.13671875 C33.50134606 2.00915856 32.80271017 5.07331393 32.81640625 7.57421875 C32.83058594 8.74855469 32.84476563 9.92289063 32.859375 11.1328125 C32.62890625 14.13671875 32.62890625 14.13671875 30.62890625 16.13671875 C28.81640625 16.55859375 28.81640625 16.55859375 26.62890625 16.88671875 C20.91755755 18.11445532 15.95499394 20.12370075 11.62890625 24.13671875 C10.21772073 27.83753178 10.31904346 31.29772821 10.43359375 35.22265625 C10.42554718 36.27957672 10.41750061 37.33649719 10.40921021 38.42544556 C10.39425174 41.78942151 10.4481129 45.14824572 10.50390625 48.51171875 C10.50584858 50.79687566 10.50329519 53.08204111 10.49609375 55.3671875 C10.48827476 60.95817895 10.53689963 66.54652669 10.62890625 72.13671875 C7.98300611 72.16356554 5.33737529 72.18348232 2.69140625 72.19921875 C1.93666016 72.20759766 1.18191406 72.21597656 0.40429688 72.22460938 C-1.52103688 72.23324316 -3.44644956 72.18896208 -5.37109375 72.13671875 C-7.24095196 70.26686054 -6.49888723 67.10524254 -6.50048828 64.61328125 C-6.5022406 63.93199158 -6.50399292 63.2507019 -6.50579834 62.54876709 C-6.51021617 60.28639208 -6.50727913 58.02409462 -6.50390625 55.76171875 C-6.50457931 54.19612615 -6.50554935 52.63053365 -6.50680542 51.06494141 C-6.5082823 47.7796123 -6.50612816 44.49431033 -6.50146484 41.20898438 C-6.49576755 36.98851359 -6.49904661 32.76810639 -6.50503731 28.54763794 C-6.50864319 25.31355303 -6.50750421 22.0794833 -6.50490952 18.84539795 C-6.50424032 17.28879794 -6.50506841 15.73219657 -6.50738907 14.17559814 C-6.50991605 12.00374679 -6.5060744 9.83199979 -6.50048828 7.66015625 C-6.49969269 6.42185059 -6.49889709 5.18354492 -6.49807739 3.90771484 C-6.27768402 -0.90163823 -4.32481623 0.00833298 0 0 Z " fill="#FEFEFE" transform="translate(592.37109375,118.86328125)"/>
<path d="M0 0 C1.82619177 1.19692569 3.38985308 2.58125933 4.93359375 4.125 C5.26359375 2.805 5.59359375 1.485 5.93359375 0.125 C7.91359375 0.125 9.89359375 0.125 11.93359375 0.125 C12.03540883 6.81432017 12.1052329 13.50343887 12.15332031 20.19335938 C12.17337692 22.46687284 12.20062913 24.7403351 12.23535156 27.01367188 C12.28413087 30.29049349 12.30662272 33.56663025 12.32421875 36.84375 C12.34486389 37.85240112 12.36550903 38.86105225 12.38677979 39.90026855 C12.38895827 46.82523568 11.36453408 52.5225056 6.45050049 57.68225098 C1.54037576 61.973226 -2.55647041 62.30678838 -8.81640625 62.3125 C-9.50734375 62.32474609 -10.19828125 62.33699219 -10.91015625 62.34960938 C-15.6614939 62.363006 -19.55443196 61.61914856 -24.06640625 60.125 C-23.73640625 57.815 -23.40640625 55.505 -23.06640625 53.125 C-22.43734375 53.3415625 -21.80828125 53.558125 -21.16015625 53.78125 C-14.31007576 56.00958943 -8.73602247 57.50976084 -1.75390625 54.875 C2.01087965 52.42351151 3.52255035 50.35813019 4.93359375 46.125 C5.00024751 44.73060336 5.01897574 43.33330125 4.99609375 41.9375 C4.97546875 40.679375 4.95484375 39.42125 4.93359375 38.125 C4.17046875 38.764375 3.40734375 39.40375 2.62109375 40.0625 C-2.4911808 43.98587349 -7.86701859 43.60529689 -14.06640625 43.125 C-19.27201061 41.38979855 -21.886862 38.54103368 -25.06640625 34.125 C-28.47365845 27.25071924 -28.25146765 18.39673295 -26.2265625 11.09765625 C-24.01469913 6.14516755 -21.27942289 2.47992443 -16.4453125 -0.09765625 C-11.19812126 -1.81225569 -5.15338129 -2.18215011 0 0 Z M-17.25390625 9.375 C-20.97561833 15.02173557 -21.461628 20.20719869 -20.60546875 26.7578125 C-19.56516739 31.32609239 -17.32862777 34.10157714 -13.75390625 37 C-10.22749433 38.47617243 -7.86251625 38.59118895 -4.06640625 38.125 C0.7057393 35.87928445 3.14959215 33.11992798 5.23828125 28.3984375 C7.00906616 22.60856773 6.72318767 17.17987575 4.18359375 11.6875 C2.05738221 8.02569124 0.30660742 5.75946892 -3.921875 4.62890625 C-10.00634976 3.52160034 -12.9297249 4.92727061 -17.25390625 9.375 Z " fill="#FEFEFE" transform="translate(802.06640625,256.875)"/>
<path d="M0 0 C1.18529297 -0.01836914 1.18529297 -0.01836914 2.39453125 -0.03710938 C7.04231548 -0.0487095 10.75195373 0.40875289 15.125 2.1875 C15.125 4.4975 15.125 6.8075 15.125 9.1875 C14.23039063 8.95933594 13.33578125 8.73117188 12.4140625 8.49609375 C2.58487768 6.15930461 -5.92253531 4.80303079 -15.0546875 9.88671875 C-19.83852399 13.30521135 -23.08336042 17.59369316 -24.875 23.1875 C-25.9176158 32.17594566 -25.25731329 39.74267295 -19.875 47.1875 C-16.06699494 51.50596151 -11.49612815 53.92521156 -5.7043457 54.34472656 C-3.29878017 54.38366692 -0.90549009 54.36198487 1.5 54.3125 C4.34625 54.27125 7.1925 54.23 10.125 54.1875 C10.125 47.2575 10.125 40.3275 10.125 33.1875 C5.175 33.1875 0.225 33.1875 -4.875 33.1875 C-4.875 31.5375 -4.875 29.8875 -4.875 28.1875 C2.055 28.1875 8.985 28.1875 16.125 28.1875 C16.125 38.4175 16.125 48.6475 16.125 59.1875 C5.26878006 61.90155499 -7.38591631 63.59459539 -17.8359375 58.44140625 C-25.05635442 54.00126481 -29.70983182 48.51751397 -32.48828125 40.39453125 C-34.09123975 31.24633376 -34.11825333 21.10153549 -28.875 13.1875 C-28.4625 12.55457031 -28.05 11.92164063 -27.625 11.26953125 C-20.81986031 2.20245592 -10.68193641 0.00862838 0 0 Z " fill="#FEFEFE" transform="translate(646.875,239.8125)"/>
<path d="M0 0 C1.98 0 3.96 0 6 0 C6.33 8.91 6.66 17.82 7 27 C9.97 24.525 9.97 24.525 13 22 C18.63683363 20.12105546 24.75837174 20.25279058 30.375 22.125 C35.60425123 25.86017945 38.32707686 29.86103533 40 36 C40.97982322 45.28253581 40.63031875 53.29858307 35 61 C29.74403523 66.13082275 25.02868176 66.33572359 17.95703125 66.29296875 C12.891606 65.79111024 10.54135932 63.54135932 7 60 C6.505 62.475 6.505 62.475 6 65 C4.02 65 2.04 65 0 65 C0 43.55 0 22.1 0 0 Z M9.75 31.3125 C6.42397986 36.42031665 5.47742494 40.9381293 6 47 C7.41108071 53.21349826 9.82003603 56.36300402 15 60 C18.52492256 61.76246128 22.26816427 60.91840671 26 60 C30.32536024 56.99105375 32.12059381 53.4033464 33.55859375 48.46484375 C34.58118675 42.75461206 33.91743162 37.26141814 31.3125 32.0625 C28.25382019 28.01181593 25.51089985 26.37663498 20.5 25.625 C15.98353574 26.30246964 12.91928059 28.05518384 9.75 31.3125 Z " fill="#FEFEFE" transform="translate(148,235)"/>
<path d="M0 0 C1.17852539 -0.00193359 1.17852539 -0.00193359 2.38085938 -0.00390625 C3.19232422 -0.00003906 4.00378906 0.00382813 4.83984375 0.0078125 C5.65517578 0.00394531 6.47050781 0.00007812 7.31054688 -0.00390625 C8.09494141 -0.00261719 8.87933594 -0.00132812 9.6875 0 C10.40043213 0.00112793 11.11336426 0.00225586 11.84790039 0.00341797 C13.77734375 0.1328125 13.77734375 0.1328125 16.77734375 1.1328125 C16.77734375 3.4428125 16.77734375 5.7528125 16.77734375 8.1328125 C16.10316406 7.97425781 15.42898437 7.81570312 14.734375 7.65234375 C6.97573356 6.28920067 -2.63419944 5.51945024 -9.578125 9.80078125 C-14.61261885 13.87860168 -17.52400721 17.82686881 -19.22265625 24.1328125 C-20.10163702 33.43631024 -19.26220721 39.57348606 -14.09765625 47.3203125 C-9.85946578 51.98357222 -4.92766168 53.91965447 1.296875 54.41015625 C6.59406425 54.46007741 11.60233179 54.32929083 16.77734375 53.1328125 C16.77734375 55.4428125 16.77734375 57.7528125 16.77734375 60.1328125 C8.31976748 62.95200459 -4.09922672 62.39497184 -12.11328125 58.45703125 C-20.07695851 53.45761164 -24.27183722 47.9852696 -27.22265625 39.1328125 C-27.9963694 27.95836517 -27.61069768 18.5441381 -20.53515625 9.3203125 C-15.13295844 3.50573317 -7.93180317 0.01252908 0 0 Z " fill="#FEFEFE" transform="translate(49.22265625,239.8671875)"/>
<path d="M0 0 C3.99499486 3.99499486 6.05218097 7.89622386 7.4375 13.4375 C7.4375 16.4075 7.4375 19.3775 7.4375 22.4375 C-7.9075 22.9325 -7.9075 22.9325 -23.5625 23.4375 C-21.29225204 31.92471962 -21.29225204 31.92471962 -15.5625 36.4375 C-9.13546132 39.00831547 -1.99529086 37.07122466 4.4375 35.4375 C4.4375 37.4175 4.4375 39.3975 4.4375 41.4375 C-2.26803043 44.64282047 -10.99167121 44.65454367 -18.14453125 42.75 C-23.66355612 40.21736908 -27.41398703 36.32288697 -29.67578125 30.640625 C-31.62534532 23.59814688 -31.74731058 15.00983549 -28.75 8.22265625 C-22.24839544 -1.55113745 -10.78591933 -4.73066637 0 0 Z M-22.4375 9.875 C-23.89749172 12.73410725 -23.89749172 12.73410725 -23.5625 17.4375 C-15.3125 17.4375 -7.0625 17.4375 1.4375 17.4375 C0.29166667 8.94791667 0.29166667 8.94791667 -3.1875 5.375 C-10.67819027 1.07478892 -17.13330705 2.97954917 -22.4375 9.875 Z " fill="#FEFEFE" transform="translate(578.5625,257.5625)"/>
<path d="M0 0 C3.99499486 3.99499486 6.05218097 7.89622386 7.4375 13.4375 C7.4375 16.4075 7.4375 19.3775 7.4375 22.4375 C-7.9075 22.9325 -7.9075 22.9325 -23.5625 23.4375 C-21.29225204 31.92471962 -21.29225204 31.92471962 -15.5625 36.4375 C-9.13546132 39.00831547 -1.99529086 37.07122466 4.4375 35.4375 C4.4375 37.4175 4.4375 39.3975 4.4375 41.4375 C-2.26803043 44.64282047 -10.99167121 44.65454367 -18.14453125 42.75 C-23.66355612 40.21736908 -27.41398703 36.32288697 -29.67578125 30.640625 C-31.62534532 23.59814688 -31.74731058 15.00983549 -28.75 8.22265625 C-22.24839544 -1.55113745 -10.78591933 -4.73066637 0 0 Z M-22.4375 9.875 C-23.89749172 12.73410725 -23.89749172 12.73410725 -23.5625 17.4375 C-15.3125 17.4375 -7.0625 17.4375 1.4375 17.4375 C0.29166667 8.94791667 0.29166667 8.94791667 -3.1875 5.375 C-10.67819027 1.07478892 -17.13330705 2.97954917 -22.4375 9.875 Z " fill="#FEFEFE" transform="translate(532.5625,257.5625)"/>
<path d="M0 0 C3.99499486 3.99499486 6.05218097 7.89622386 7.4375 13.4375 C7.4375 16.4075 7.4375 19.3775 7.4375 22.4375 C-7.9075 22.9325 -7.9075 22.9325 -23.5625 23.4375 C-21.29225204 31.92471962 -21.29225204 31.92471962 -15.5625 36.4375 C-9.13546132 39.00831547 -1.99529086 37.07122466 4.4375 35.4375 C4.4375 37.4175 4.4375 39.3975 4.4375 41.4375 C-2.26803043 44.64282047 -10.99167121 44.65454367 -18.14453125 42.75 C-23.66355612 40.21736908 -27.41398703 36.32288697 -29.67578125 30.640625 C-31.62534532 23.59814688 -31.74731058 15.00983549 -28.75 8.22265625 C-22.24839544 -1.55113745 -10.78591933 -4.73066637 0 0 Z M-22.4375 9.875 C-23.89749172 12.73410725 -23.89749172 12.73410725 -23.5625 17.4375 C-15.3125 17.4375 -7.0625 17.4375 1.4375 17.4375 C0.29166667 8.94791667 0.29166667 8.94791667 -3.1875 5.375 C-10.67819027 1.07478892 -17.13330705 2.97954917 -22.4375 9.875 Z " fill="#FEFEFE" transform="translate(420.5625,257.5625)"/>
<path d="M0 0 C5.59989108 3.2426036 9.49383117 7.95414977 11.55078125 14.125 C12.74893661 30.68311422 12.74893661 30.68311422 7.55078125 37.125 C2.48808521 42.37720872 -1.94491666 44.42786776 -9.19921875 44.5625 C-15.62487647 44.46898731 -19.70709886 43.49589333 -24.44921875 39.125 C-30.06133927 33.21750471 -30.85164894 27.77062611 -30.81494141 19.79736328 C-30.6465234 13.47937049 -29.34145522 9.19948699 -25.0234375 4.609375 C-18.21337006 -1.51440658 -8.64753061 -3.08938892 0 0 Z M-20.69921875 9.375 C-24.32162576 15.06735387 -24.83809252 20.20951248 -23.9921875 26.7578125 C-23.0065263 31.05501168 -20.69696135 33.78483202 -17.76171875 36.9375 C-14.11669026 38.80927139 -10.52583425 39.23843626 -6.44921875 39.125 C-1.72040541 37.51898792 0.87883756 35.32376865 3.55078125 31.125 C5.92268307 25.364667 5.92689702 20.12446874 4.55078125 14.125 C2.5189194 10.2714689 0.466034 7.1355352 -3.44921875 5.125 C-10.55227334 3.37300374 -15.35132586 4.02710711 -20.69921875 9.375 Z " fill="#FEFEFE" transform="translate(246.44921875,256.875)"/>
<path d="M0 0 C4.12992423 1.98924684 6.35822463 4.40958342 8.06713867 8.64453125 C9.12238026 12.44019741 9.22680946 15.64881725 9.1953125 19.5859375 C9.1924826 20.28772125 9.18965271 20.989505 9.18673706 21.71255493 C9.17562512 23.93355028 9.15053834 26.15412845 9.125 28.375 C9.11495854 29.88931705 9.10583473 31.40364049 9.09765625 32.91796875 C9.07571554 36.61211258 9.04124875 40.30601551 9 44 C7.02 44 5.04 44 3 44 C2.98541748 43.22922119 2.97083496 42.45844238 2.95581055 41.66430664 C2.88076834 38.12989827 2.78429353 34.59637693 2.6875 31.0625 C2.66494141 29.85013672 2.64238281 28.63777344 2.61914062 27.38867188 C2.46738471 17.30759726 2.46738471 17.30759726 -1 8 C-4.77180317 5.65559297 -7.51482408 5.78421796 -11.8125 6.40625 C-15.39670554 7.37910579 -16.89215208 8.99791357 -19 12 C-21.17601195 18.79321294 -21.42128637 25.40397523 -21.625 32.5 C-21.66367187 33.60859375 -21.70234375 34.7171875 -21.7421875 35.859375 C-21.83575243 38.57275797 -21.92149483 41.28614661 -22 44 C-23.98 44 -25.96 44 -28 44 C-28 29.81 -28 15.62 -28 1 C-26.02 1 -24.04 1 -22 1 C-21.67 2.65 -21.34 4.3 -21 6 C-20.05125 5.195625 -19.1025 4.39125 -18.125 3.5625 C-12.66655905 -1.06530863 -6.98488775 -0.87311097 0 0 Z " fill="#FEFEFE" transform="translate(756,256)"/>
<path d="M0 0 C1.98 0 3.96 0 6 0 C6.02187378 1.26275757 6.02187378 1.26275757 6.04418945 2.55102539 C6.10559154 5.7029269 6.17980731 8.85420461 6.26245117 12.00561523 C6.29550934 13.36422543 6.32359961 14.72296666 6.34643555 16.08178711 C6.33531109 26.49872071 6.33531109 26.49872071 10 36 C13.75456567 38.50304378 15.54745934 38.45280074 20 38 C24.98238309 35.50880846 26.88908381 33.07665682 29 28 C29.49586098 24.72337471 29.49586098 24.72337471 29.51171875 21.2890625 C29.54716797 20.04511719 29.58261719 18.80117188 29.61914062 17.51953125 C29.64169922 16.23433594 29.66425781 14.94914062 29.6875 13.625 C29.72166016 12.31660156 29.75582031 11.00820313 29.79101562 9.66015625 C29.87327754 6.44018975 29.94250263 3.22048821 30 0 C31.98 0 33.96 0 36 0 C36.33 14.19 36.66 28.38 37 43 C35.02 43 33.04 43 31 43 C30.34 41.68 29.68 40.36 29 39 C28.236875 39.639375 27.47375 40.27875 26.6875 40.9375 C21.38142484 45.00960419 15.43442457 44.59578005 9 44 C4.24226049 41.91327214 2.53812941 39.72533782 0.60214233 34.96237183 C-0.39786604 31.7033612 -0.3690712 28.46786876 -0.29296875 25.09765625 C-0.28872391 24.3750914 -0.28447906 23.65252655 -0.28010559 22.9080658 C-0.26346418 20.62581307 -0.22584248 18.34448067 -0.1875 16.0625 C-0.17243423 14.50457015 -0.15874916 12.9466263 -0.14648438 11.38867188 C-0.11360882 7.59209943 -0.0619309 3.79620513 0 0 Z " fill="#FEFEFE" transform="translate(677,257)"/>
<path d="M0 0 C1.98 0 3.96 0 6 0 C6.02187378 1.26275757 6.02187378 1.26275757 6.04418945 2.55102539 C6.10559154 5.7029269 6.17980731 8.85420461 6.26245117 12.00561523 C6.29550934 13.36422543 6.32359961 14.72296666 6.34643555 16.08178711 C6.33531109 26.49872071 6.33531109 26.49872071 10 36 C13.75456567 38.50304378 15.54745934 38.45280074 20 38 C24.98238309 35.50880846 26.88908381 33.07665682 29 28 C29.49586098 24.72337471 29.49586098 24.72337471 29.51171875 21.2890625 C29.54716797 20.04511719 29.58261719 18.80117188 29.61914062 17.51953125 C29.64169922 16.23433594 29.66425781 14.94914062 29.6875 13.625 C29.72166016 12.31660156 29.75582031 11.00820313 29.79101562 9.66015625 C29.87327754 6.44018975 29.94250263 3.22048821 30 0 C31.98 0 33.96 0 36 0 C36.33 14.19 36.66 28.38 37 43 C35.02 43 33.04 43 31 43 C30.34 41.68 29.68 40.36 29 39 C28.236875 39.639375 27.47375 40.27875 26.6875 40.9375 C21.38142484 45.00960419 15.43442457 44.59578005 9 44 C4.24226049 41.91327214 2.53812941 39.72533782 0.60214233 34.96237183 C-0.39786604 31.7033612 -0.3690712 28.46786876 -0.29296875 25.09765625 C-0.28872391 24.3750914 -0.28447906 23.65252655 -0.28010559 22.9080658 C-0.26346418 20.62581307 -0.22584248 18.34448067 -0.1875 16.0625 C-0.17243423 14.50457015 -0.15874916 12.9466263 -0.14648438 11.38867188 C-0.11360882 7.59209943 -0.0619309 3.79620513 0 0 Z " fill="#FEFEFE" transform="translate(98,257)"/>
<path d="M0 0 C13.86 0 27.72 0 42 0 C42 1.98 42 3.96 42 6 C36.06 6 30.12 6 24 6 C24 23.49 24 40.98 24 59 C22.02 59 20.04 59 18 59 C18 41.51 18 24.02 18 6 C12.06 6 6.12 6 0 6 C0 4.02 0 2.04 0 0 Z " fill="#FFFFFF" transform="translate(313,241)"/>
<path d="M0 0 C1.49080078 0.02707031 1.49080078 0.02707031 3.01171875 0.0546875 C3.77097656 0.07789063 4.53023438 0.10109375 5.3125 0.125 C4.9825 2.105 4.6525 4.085 4.3125 6.125 C3.219375 6.0425 2.12625 5.96 1 5.875 C-2.63334407 5.72413143 -2.63334407 5.72413143 -4.375 7.75 C-6.01320318 10.71436766 -6.19184136 13.00488104 -6.375 16.375 C-6.44074219 17.45265625 -6.50648438 18.5303125 -6.57421875 19.640625 C-6.61160156 20.46046875 -6.64898437 21.2803125 -6.6875 22.125 C-3.0575 22.125 0.5725 22.125 4.3125 22.125 C4.3125 23.775 4.3125 25.425 4.3125 27.125 C0.6825 27.125 -2.9475 27.125 -6.6875 27.125 C-6.6875 39.665 -6.6875 52.205 -6.6875 65.125 C-8.6675 65.125 -10.6475 65.125 -12.6875 65.125 C-12.6875 52.585 -12.6875 40.045 -12.6875 27.125 C-15.9875 27.125 -19.2875 27.125 -22.6875 27.125 C-22.6875 25.475 -22.6875 23.825 -22.6875 22.125 C-19.3875 22.125 -16.0875 22.125 -12.6875 22.125 C-12.73390625 21.18398438 -12.7803125 20.24296875 -12.828125 19.2734375 C-13.15974568 7.83252389 -13.15974568 7.83252389 -10.875 4.375 C-7.21451361 0.60992829 -5.1286338 -0.12067374 0 0 Z " fill="#FEFEFE" transform="translate(286.6875,234.875)"/>
<path d="M0 0 C0 1.98 0 3.96 0 6 C-0.639375 5.835 -1.27875 5.67 -1.9375 5.5 C-7.37004297 4.61305421 -12.31249363 3.87499575 -17 7 C-18.08805146 9.3566226 -18.08805146 9.3566226 -18 12 C-14.42984505 16.36161098 -9.91039515 18.08021018 -4.875 20.33984375 C-1.65461293 22.19944226 -0.00288246 23.88021603 2 27 C2.94204234 30.73568512 2.85237798 34.40979287 1.01171875 37.84375 C-1.28319579 40.74258942 -3.57047322 42.70282148 -7 44 C-10.27734375 44.265625 -10.27734375 44.265625 -13.9375 44.25 C-15.14277344 44.25515625 -16.34804688 44.2603125 -17.58984375 44.265625 C-20.84123725 44.0123664 -23.07966971 43.39643877 -26 42 C-25.505 39.03 -25.505 39.03 -25 36 C-23.989375 36.33 -22.97875 36.66 -21.9375 37 C-17.07414689 38.36566885 -12.88743573 38.77959302 -8.125 36.8125 C-5.84882921 35.13912797 -5.84882921 35.13912797 -4.9375 32.5625 C-4.73842683 29.90414036 -4.73842683 29.90414036 -6.625 28.03125 C-9.29345363 25.74901992 -11.88202261 24.415417 -15.0625 22.9375 C-21.97173039 19.71774739 -21.97173039 19.71774739 -24 17 C-25.30271041 12.67137362 -25.28941327 8.91931273 -23.9375 4.625 C-18.5928851 -2.61609116 -8.06915088 -2.68971696 0 0 Z " fill="#FEFEFE" transform="translate(492,257)"/>
<path d="M0 0 C0 1.98 0 3.96 0 6 C-0.639375 5.835 -1.27875 5.67 -1.9375 5.5 C-7.37004297 4.61305421 -12.31249363 3.87499575 -17 7 C-18.08805146 9.3566226 -18.08805146 9.3566226 -18 12 C-14.42984505 16.36161098 -9.91039515 18.08021018 -4.875 20.33984375 C-1.65461293 22.19944226 -0.00288246 23.88021603 2 27 C2.94204234 30.73568512 2.85237798 34.40979287 1.01171875 37.84375 C-1.28319579 40.74258942 -3.57047322 42.70282148 -7 44 C-10.27734375 44.265625 -10.27734375 44.265625 -13.9375 44.25 C-15.14277344 44.25515625 -16.34804688 44.2603125 -17.58984375 44.265625 C-20.84123725 44.0123664 -23.07966971 43.39643877 -26 42 C-25.505 39.03 -25.505 39.03 -25 36 C-23.989375 36.33 -22.97875 36.66 -21.9375 37 C-17.07414689 38.36566885 -12.88743573 38.77959302 -8.125 36.8125 C-5.84882921 35.13912797 -5.84882921 35.13912797 -4.9375 32.5625 C-4.73842683 29.90414036 -4.73842683 29.90414036 -6.625 28.03125 C-9.29345363 25.74901992 -11.88202261 24.415417 -15.0625 22.9375 C-21.97173039 19.71774739 -21.97173039 19.71774739 -24 17 C-25.30271041 12.67137362 -25.28941327 8.91931273 -23.9375 4.625 C-18.5928851 -2.61609116 -8.06915088 -2.68971696 0 0 Z " fill="#FEFEFE" transform="translate(381,257)"/>
<path d="M0 0 C0 3.96 0 7.92 0 12 C3.96 12 7.92 12 12 12 C12 13.65 12 15.3 12 17 C8.04 17 4.08 17 0 17 C0.08719731 21.1884778 0.19413005 25.37488383 0.3125 29.5625 C0.33505859 30.74392578 0.35761719 31.92535156 0.38085938 33.14257812 C0.57592308 39.47328197 0.93626336 44.40642185 4 50 C6.64 50 9.28 50 12 50 C12.38218767 51.65614657 12.71395102 53.32457024 13 55 C11.27904777 56.72095223 9.02836086 56.17199761 6.6875 56.1875 C5.72199219 56.20167969 4.75648438 56.21585937 3.76171875 56.23046875 C0.79082247 55.98254388 -0.64830921 55.83020712 -3 54 C-5.53368987 49.02175282 -6.3659509 45.42218652 -6.29296875 39.75390625 C-6.28872391 39.09792953 -6.28447906 38.44195282 -6.28010559 37.76609802 C-6.26348779 35.69779089 -6.22587238 33.63050599 -6.1875 31.5625 C-6.17243111 30.14910275 -6.15874659 28.73569002 -6.14648438 27.32226562 C-6.11364104 23.88118565 -6.06198015 20.44069281 -6 17 C-8.97 17 -11.94 17 -15 17 C-15 15.35 -15 13.7 -15 12 C-12.03 12 -9.06 12 -6 12 C-6 8.7 -6 5.4 -6 2 C-2 0 -2 0 0 0 Z " fill="#FEFEFE" transform="translate(448,245)"/>
<path d="M0 0 C1.98 0 3.96 0 6 0 C6 21.45 6 42.9 6 65 C4.02 65 2.04 65 0 65 C0 43.55 0 22.1 0 0 Z " fill="#FEFEFE" transform="translate(77,235)"/>
</svg>
